<?xml version="1.0" encoding="utf-8"?>
<!-- Generator: Adobe Illustrator 19.2.0, SVG Export Plug-In . SVG Version: 6.00 Build 0)  -->
<svg version="1.1" id="Layer_1" xmlns="http://www.w3.org/2000/svg" xmlns:xlink="http://www.w3.org/1999/xlink" x="0px" y="0px"
	 width="92px" height="92px" viewBox="0 0 92 92" style="enable-background:new 0 0 92 92;" xml:space="preserve">
<style type="text/css">
	.st0{fill:url(#SVGID_1_);}
	.st1{fill:url(#SVGID_2_);}
	.st2{fill:url(#SVGID_3_);}
	.st3{fill:url(#SVGID_4_);}
	.st4{fill:url(#SVGID_5_);}
	.st5{fill:url(#SVGID_6_);}
	.st6{fill:url(#SVGID_7_);}
	.st7{fill:url(#SVGID_8_);}
	.st8{fill:url(#SVGID_9_);}
</style>
<g>
	<linearGradient id="SVGID_1_" gradientUnits="userSpaceOnUse" x1="128.3864" y1="149.1421" x2="15.3883" y2="12.4858">
		<stop  offset="0" style="stop-color:#660066"/>
		<stop  offset="1" style="stop-color:#B700B7"/>
	</linearGradient>
	<path class="st0" d="M91,16.5c-0.6,0-1,0.4-1,1v63H48.9c2.3-1.5,12.2-7.9,19.6-10c6.6-1.8,17.6-1.9,17.7-1.9c0.5,0,1-0.4,1-1V12.5
		c0-0.5-0.4-1-1-1c-0.5,0-11.5-0.2-18.3,2c-8.1,2.6-17.5,11-20.1,13.5c-2.6-2.4-11.7-10.8-19.6-13.5C20.8,11,8.5,11.5,8,11.6
		c-0.5,0-1,0.5-1,1v55.1c0,0.3,0.1,0.5,0.3,0.7c0.2,0.2,0.4,0.3,0.7,0.3c0.1,0,12.4-0.1,19.6,1.9c7.2,2.1,17,8.5,19.2,10H2v-63
		c0-0.5-0.4-1-1-1s-1,0.4-1,1v64c0,0.5,0.4,1,1,1h90c0.6,0,1-0.4,1-1v-64C92,17,91.6,16.5,91,16.5z M46.9,78.2
		c-3.5-2.3-11.9-7.6-18.7-9.5c-6.4-1.8-16.1-2-19.2-2V13.5c3-0.1,12.6-0.1,18.6,2c7.9,2.7,17.5,11.7,19.3,13.4V78.2z M48.9,28.8
		c1.8-1.7,11.7-10.8,19.7-13.4c5.3-1.7,13.8-1.9,16.6-1.9v53.1c-2.9,0.1-11.5,0.4-17.2,2c-6.9,1.9-15.6,7.3-19.2,9.5V28.8z"/>
	<linearGradient id="SVGID_2_" gradientUnits="userSpaceOnUse" x1="74.1587" y1="39.3475" x2="63.7368" y2="26.7435">
		<stop  offset="0" style="stop-color:#660066"/>
		<stop  offset="1" style="stop-color:#B700B7"/>
	</linearGradient>
	<path class="st1" d="M53.4,36.9c0.2,0,0.4-0.1,0.6-0.2c0.1-0.1,7.5-6.1,12.7-8.3c4.9-2.1,13.1-2.9,13.2-2.9
		c0.5-0.1,0.9-0.5,0.9-1.1c-0.1-0.5-0.6-0.9-1.1-0.9c-0.3,0-8.5,0.9-13.7,3c-5.5,2.3-12.9,8.3-13.2,8.6c-0.4,0.3-0.5,1-0.1,1.4
		C52.8,36.7,53.1,36.9,53.4,36.9z"/>
	<linearGradient id="SVGID_3_" gradientUnits="userSpaceOnUse" x1="74.1592" y1="49.2699" x2="63.7372" y2="36.6659">
		<stop  offset="0" style="stop-color:#660066"/>
		<stop  offset="1" style="stop-color:#B700B7"/>
	</linearGradient>
	<path class="st2" d="M53.4,46.8c0.2,0,0.4-0.1,0.6-0.2c0.1-0.1,7.5-6.1,12.7-8.3c4.9-2.1,13.1-2.9,13.2-2.9
		c0.5-0.1,0.9-0.5,0.9-1.1c-0.1-0.5-0.6-0.9-1.1-0.9c-0.3,0-8.5,0.9-13.7,3C60.4,38.7,53,44.8,52.7,45c-0.4,0.3-0.5,1-0.1,1.4
		C52.8,46.7,53.1,46.8,53.4,46.8z"/>
	<linearGradient id="SVGID_4_" gradientUnits="userSpaceOnUse" x1="74.1585" y1="58.2006" x2="63.7369" y2="45.5971">
		<stop  offset="0" style="stop-color:#660066"/>
		<stop  offset="1" style="stop-color:#B700B7"/>
	</linearGradient>
	<path class="st3" d="M53.4,55.7c0.2,0,0.4-0.1,0.6-0.2c0.1-0.1,7.5-6.1,12.7-8.3c4.9-2.1,13.1-2.9,13.2-2.9
		c0.5-0.1,0.9-0.5,0.9-1.1c-0.1-0.5-0.6-0.9-1.1-0.9c-0.3,0-8.5,0.9-13.7,3c-5.5,2.3-12.9,8.3-13.2,8.6c-0.4,0.3-0.5,1-0.1,1.4
		C52.8,55.6,53.1,55.7,53.4,55.7z"/>
	<linearGradient id="SVGID_5_" gradientUnits="userSpaceOnUse" x1="74.1582" y1="67.1316" x2="63.7365" y2="54.528">
		<stop  offset="0" style="stop-color:#660066"/>
		<stop  offset="1" style="stop-color:#B700B7"/>
	</linearGradient>
	<path class="st4" d="M80.8,52.1c-0.1-0.5-0.6-0.9-1.1-0.9c-0.3,0-8.5,0.9-13.7,3c-5.5,2.3-12.9,8.3-13.2,8.6
		c-0.4,0.3-0.5,1-0.1,1.4c0.2,0.2,0.5,0.4,0.8,0.4c0.2,0,0.4-0.1,0.6-0.2c0.1-0.1,7.5-6.1,12.7-8.3c4.9-2.1,13.1-2.9,13.2-2.9
		C80.4,53.2,80.8,52.7,80.8,52.1z"/>
	<linearGradient id="SVGID_6_" gradientUnits="userSpaceOnUse" x1="49.6264" y1="55.474" x2="20.9135" y2="20.7496">
		<stop  offset="0" style="stop-color:#660066"/>
		<stop  offset="1" style="stop-color:#B700B7"/>
	</linearGradient>
	<path class="st5" d="M14.5,24.4c-0.1,0.5,0.3,1,0.9,1.1c0.1,0,8.2,0.8,13.2,2.9c5.2,2.2,12.6,8.2,12.7,8.3c0.2,0.2,0.4,0.2,0.6,0.2
		c0.3,0,0.6-0.1,0.8-0.4c0.3-0.4,0.3-1-0.1-1.4c-0.3-0.3-7.7-6.3-13.2-8.6c-5.2-2.2-13.4-3-13.7-3C15,23.4,14.6,23.8,14.5,24.4z"/>
	<linearGradient id="SVGID_7_" gradientUnits="userSpaceOnUse" x1="49.627" y1="65.3975" x2="20.9127" y2="30.6713">
		<stop  offset="0" style="stop-color:#660066"/>
		<stop  offset="1" style="stop-color:#B700B7"/>
	</linearGradient>
	<path class="st6" d="M29.3,36.4c-5.2-2.2-13.4-3-13.7-3c-0.6-0.1-1,0.3-1.1,0.9c-0.1,0.5,0.3,1,0.9,1.1c0.1,0,8.2,0.8,13.2,2.9
		c5.2,2.2,12.6,8.2,12.7,8.3c0.2,0.2,0.4,0.2,0.6,0.2c0.3,0,0.6-0.1,0.8-0.4c0.3-0.4,0.3-1-0.1-1.4C42.2,44.8,34.8,38.7,29.3,36.4z"
		/>
	<linearGradient id="SVGID_8_" gradientUnits="userSpaceOnUse" x1="49.6264" y1="74.3276" x2="20.9132" y2="39.6027">
		<stop  offset="0" style="stop-color:#660066"/>
		<stop  offset="1" style="stop-color:#B700B7"/>
	</linearGradient>
	<path class="st7" d="M29.3,45.4c-5.2-2.2-13.4-3-13.7-3c-0.6-0.1-1,0.3-1.1,0.9c-0.1,0.5,0.3,1,0.9,1.1c0.1,0,8.2,0.8,13.2,2.9
		c5.2,2.2,12.6,8.2,12.7,8.3c0.2,0.2,0.4,0.2,0.6,0.2c0.3,0,0.6-0.1,0.8-0.4c0.3-0.4,0.3-1-0.1-1.4C42.2,53.7,34.8,47.7,29.3,45.4z"
		/>
	<linearGradient id="SVGID_9_" gradientUnits="userSpaceOnUse" x1="49.6249" y1="83.2563" x2="20.9153" y2="48.5358">
		<stop  offset="0" style="stop-color:#660066"/>
		<stop  offset="1" style="stop-color:#B700B7"/>
	</linearGradient>
	<path class="st8" d="M29.3,54.3c-5.2-2.2-13.4-3-13.7-3c-0.6,0-1,0.3-1.1,0.9c-0.1,0.5,0.3,1,0.9,1.1c0.1,0,8.2,0.8,13.2,2.9
		c5.2,2.2,12.6,8.2,12.7,8.3c0.2,0.2,0.4,0.2,0.6,0.2c0.3,0,0.6-0.1,0.8-0.4c0.3-0.4,0.3-1-0.1-1.4C42.2,62.6,34.8,56.6,29.3,54.3z"
		/>
</g>
</svg>
