<svg width="214" height="30" viewBox="0 0 214 30" fill="none" xmlns="http://www.w3.org/2000/svg">
<path d="M8.6802 1.67529C15.2284 1.67529 19.0355 5.63468 19.0355 12.5636C19.0355 19.721 15.3046 23.7565 8.6802 23.7565H0V1.67529H8.6802ZM4.64467 19.7971H7.99492C12.1066 19.7971 14.3909 17.2844 14.3909 12.6398C14.3909 8.14737 12.0305 5.63468 7.99492 5.63468H4.64467V19.7971Z" fill="white"/>
<path d="M23.7564 29.9241V26.3454C23.9087 26.3454 24.5939 26.4216 24.7462 26.4216C26.4213 26.4216 27.335 25.8886 27.7158 24.5941L27.868 23.985L21.929 6.85303H26.8782L30.4569 19.721H30.7614L34.264 6.85303H38.9848L33.1219 24.0611C31.6751 28.4013 29.6193 30.0002 25.3554 30.0002C25.2792 30.0002 23.9087 29.9241 23.7564 29.9241Z" fill="white"/>
<path d="M48.5787 6.47217C52.8426 6.47217 55.4314 8.29958 55.6599 11.4975H51.5482C51.3198 10.4316 50.2538 9.74628 48.6548 9.74628C47.0558 9.74628 45.9137 10.4316 45.9137 11.5737C45.9137 12.4113 46.599 12.9442 48.1979 13.2488L51.3959 13.9341C54.67 14.6194 56.1167 16.0661 56.1167 18.5788C56.1167 21.929 53.071 24.1371 48.6548 24.1371C44.1624 24.1371 41.4974 22.3097 41.1929 19.0356H45.533C45.8375 20.1778 46.9797 20.863 48.7309 20.863C50.4822 20.863 51.6243 20.1778 51.6243 19.0356C51.6243 18.1981 51.0152 17.6651 49.4924 17.3605L46.4467 16.7514C43.1726 16.0661 41.5736 14.4671 41.5736 11.8783C41.5736 8.60415 44.3908 6.47217 48.5787 6.47217Z" fill="white"/>
<path d="M60.2284 0.380859H64.7208V23.7565H60.2284V0.380859Z" fill="white"/>
<path d="M84.67 18.9595C83.9847 22.1574 81.0913 24.1371 76.9035 24.1371C71.7259 24.1371 68.6802 20.863 68.6802 15.3808C68.6802 9.89856 71.802 6.47217 76.8274 6.47217C81.7766 6.47217 84.7462 9.67014 84.7462 15.0001V16.3706H73.2487V16.5991C73.3248 19.1118 74.7716 20.7107 77.132 20.7107C78.8832 20.7107 80.1015 20.1016 80.5584 18.9595H84.67ZM73.2487 13.5534H80.4822C80.4061 11.3453 79.0355 9.89856 76.9797 9.89856C74.8477 9.89856 73.401 11.3453 73.2487 13.5534Z" fill="white"/>
<path d="M94.7969 18.2743L91.6751 23.8327H86.9543L92.2842 15.4571L86.9543 6.92917H92.0558L95.0254 12.4875H95.3299L98.2233 6.85303H103.096L97.7665 15.2287L103.096 23.7566H98.2233L95.1015 18.1982H94.7969V18.2743Z" fill="white"/>
<path d="M106.294 2.28426C106.294 0.913706 107.284 0 108.959 0C110.558 0 111.624 0.913706 111.624 2.28426C111.624 3.57868 110.558 4.56853 108.959 4.56853C107.36 4.49239 106.294 3.57868 106.294 2.28426ZM106.675 6.85279H111.168V23.7563H106.675V6.85279Z" fill="white"/>
<path d="M115.127 18.9595C115.127 15.9138 117.487 14.0864 121.675 13.858L125.787 13.6296V12.259C125.787 10.8123 124.797 10.0509 122.97 10.0509C121.371 10.0509 120.305 10.5839 119.924 11.6499H115.736C116.041 8.52804 118.858 6.54834 123.122 6.54834C127.614 6.54834 130.127 8.68032 130.127 12.259V23.8326H125.787V21.6245H125.482C124.645 23.1473 122.741 24.061 120.609 24.061C117.411 24.061 115.127 22.0813 115.127 18.9595ZM125.711 17.6651V16.4468L122.284 16.6752C120.381 16.8275 119.467 17.5128 119.467 18.7311C119.467 20.0255 120.533 20.7869 122.132 20.7869C124.188 20.7108 125.711 19.3402 125.711 17.6651Z" fill="white"/>
<path d="M136.543 21.5483C136.543 20.0254 137.609 18.8833 139.284 18.8833C140.959 18.8833 142.025 20.0254 142.025 21.5483C142.025 23.0711 140.959 24.2133 139.284 24.2133C137.685 24.2133 136.543 23.0711 136.543 21.5483Z" fill="#FF2FFF"/>
<path d="M157.482 1.67529C162.051 1.67529 165.173 4.72098 165.173 9.36565C165.173 13.9342 161.975 16.9799 157.254 16.9799H152.914V23.8327H148.193V1.67529H157.482ZM152.838 13.1728H156.188C158.853 13.1728 160.376 11.8022 160.376 9.36565C160.376 6.85296 158.853 5.4824 156.188 5.4824H152.838V13.1728Z" fill="#FF2FFF"/>
<path d="M174.766 23.7565H170.122V1.67529H179.411C184.284 1.67529 187.254 4.34027 187.254 8.75651C187.254 11.5738 185.807 14.0103 183.218 15.0763L187.863 23.8327H182.609L178.497 15.8377H174.69V23.7565H174.766ZM174.766 12.1829H178.802C181.162 12.1829 182.533 10.8885 182.533 8.75651C182.533 6.62453 181.086 5.33012 178.802 5.33012H174.766V12.1829Z" fill="#FF2FFF"/>
<path d="M213.066 12.7157C213.066 19.873 208.954 24.3654 202.406 24.3654C195.858 24.3654 191.746 19.873 191.746 12.7157C191.746 5.5583 195.934 1.06592 202.406 1.06592C208.954 1.06592 213.066 5.5583 213.066 12.7157ZM196.543 12.7157C196.543 17.3603 198.827 20.3299 202.482 20.3299C206.061 20.3299 208.421 17.3603 208.421 12.7157C208.421 8.07099 206.137 5.17759 202.482 5.17759C198.827 5.17759 196.543 8.07099 196.543 12.7157Z" fill="#FF2FFF"/>
</svg>
