<?xml version="1.0" encoding="utf-8"?>
<!-- Generator: Adobe Illustrator 19.2.0, SVG Export Plug-In . SVG Version: 6.00 Build 0)  -->
<svg version="1.1" id="Layer_1" xmlns="http://www.w3.org/2000/svg" xmlns:xlink="http://www.w3.org/1999/xlink" x="0px" y="0px"
	 width="92px" height="92px" viewBox="0 0 92 92" style="enable-background:new 0 0 92 92;" xml:space="preserve">
<style type="text/css">
	.st0{fill:url(#SVGID_1_);}
	.st1{fill:url(#SVGID_2_);}
	.st2{fill:url(#SVGID_3_);}
	.st3{fill:url(#SVGID_4_);}
	.st4{fill:url(#SVGID_5_);}
	.st5{fill:url(#SVGID_6_);}
	.st6{fill:url(#SVGID_7_);}
	.st7{fill:url(#SVGID_8_);}
	.st8{fill:url(#SVGID_9_);}
</style>
<g>
	<linearGradient id="SVGID_1_" gradientUnits="userSpaceOnUse" x1="13.611" y1="0.5217" x2="84.611" y2="86.5218">
		<stop  offset="0" style="stop-color:#660066"/>
		<stop  offset="1" style="stop-color:#B700B7"/>
	</linearGradient>
	<path class="st0" d="M50.8,34c0-5.5-4.3-10-9.5-10s-9.5,4.5-9.5,10s4.3,10,9.5,10S50.8,39.5,50.8,34z M41.2,42
		c-4.1,0-7.5-3.6-7.5-8s3.4-8,7.5-8s7.5,3.6,7.5,8S45.4,42,41.2,42z"/>
	<linearGradient id="SVGID_2_" gradientUnits="userSpaceOnUse" x1="6.1667" y1="6.6676" x2="77.1667" y2="92.6676">
		<stop  offset="0" style="stop-color:#660066"/>
		<stop  offset="1" style="stop-color:#B700B7"/>
	</linearGradient>
	<path class="st1" d="M81.2,51.5h-2.5v-2.1c0-1.3-0.4-2.4-1.1-3.5l0,0c-0.1-0.5-0.4-1-0.8-1.5c-0.2-0.3-0.5-0.5-0.7-0.6
		c4.4-0.9,7.7-5,7.7-9.8c0-5.5-4.3-10-9.5-10s-9.5,4.5-9.5,10c0,4.7,3.2,8.7,7.4,9.7c-0.2,0.1-0.4,0.3-0.6,0.4l-5.6,5.2h0
		c-0.4,0.3-0.9,0.5-1.4,0.5h-9.2c-3-4-7.8-6-14.1-6c-8.9,0-13.2,4.1-15.2,7.5c-1.1,1.9-1.6,3.9-1.9,5.2c0,0.1,0,0.2-0.1,0.3h-6.4
		c-0.6,0-1,0.4-1,1v31.5c0,0.6,0.4,1,1,1h8c0.6,0,1-0.4,1-1v-23h30v23c0,0.6,0.4,1,1,1h7.5c0.6,0,1-0.4,1-1v-10h3.5h2l0.9,10.6
		c0,0.5,0.5,0.9,1,0.9h5.1c0.3,0,0.5-0.1,0.7-0.3c0.2-0.2,0.3-0.5,0.3-0.8L78.8,78c3.2-1.9,5.4-5.4,5.4-9.5v-14
		C84.2,52.8,82.9,51.5,81.2,51.5z M65.2,57h2.3c1.1,0,2.1-0.4,2.8-1.2l6.3-6.3c0,0,0-0.1,0.1-0.1V68c0,2.2-1.8,4-4,4h-6.5V58
		C66.2,57.4,65.8,57,65.2,57z M66.8,34c0-4.4,3.4-8,7.5-8s7.5,3.6,7.5,8s-3.4,8-7.5,8S66.8,38.4,66.8,34z M67.3,50.9l5.6-5.2
		c0.3-0.3,0.8-0.5,1.2-0.5c0.5,0,0.9,0.2,1.2,0.6c0.6,0.7,0.6,1.7-0.1,2.3l-6.3,6.3C68.5,54.8,68,55,67.5,55H51.3
		c-0.8,0-1.5-0.7-1.5-1.5s0.7-1.5,1.5-1.5h13.3C65.6,52,66.6,51.6,67.3,50.9z M27.8,52.5c2.5-4.3,7-6.5,13.4-6.5c5,0,8.8,1.3,11.5,4
		h-1.5c-1.9,0-3.5,1.6-3.5,3.5c0,1.9,1.6,3.5,3.5,3.5H26.2C26.4,55.9,26.9,54.2,27.8,52.5z M64.2,88.5h-5.5v-23c0-0.6-0.4-1-1-1h-32
		c-0.6,0-1,0.4-1,1v23h-6V59H25h32.5h6.8V88.5z M74.6,89l-0.8-9.2l3.1-0.6l0.8,9.8H74.6z M82.2,68.5c0,5-4,9-9,9h-3.5h-3.5V74h6.5
		c3.3,0,6-2.7,6-6V53.5h2.5c0.6,0,1,0.4,1,1V68.5z"/>
	<linearGradient id="SVGID_3_" gradientUnits="userSpaceOnUse" x1="15.2978" y1="-0.8708" x2="86.2978" y2="85.1292">
		<stop  offset="0" style="stop-color:#660066"/>
		<stop  offset="1" style="stop-color:#B700B7"/>
	</linearGradient>
	<path class="st2" d="M28,26.4c0.4,0.3,0.8,0.5,1.3,0.5c0.3,0,0.6-0.1,0.9-0.2c0.7-0.3,1.2-1,1.2-1.8v-4.7h4.5c2.2,0,4-1.8,4-4V5
		c0-2.2-1.8-4-4-4h-22c-2.2,0-4,1.8-4,4v11.2c0,2.2,1.8,4,4,4h6.8L28,26.4z M11.8,16.2V5c0-1.1,0.9-2,2-2h22c1.1,0,2,0.9,2,2v11.2
		c0,1.1-0.9,2-2,2h-6.5v6.7l-8-6.7h-7.5C12.6,18.2,11.8,17.3,11.8,16.2z"/>
	<linearGradient id="SVGID_4_" gradientUnits="userSpaceOnUse" x1="14.4572" y1="-8.9753" x2="112.5048" y2="109.7866">
		<stop  offset="0" style="stop-color:#660066"/>
		<stop  offset="1" style="stop-color:#B700B7"/>
	</linearGradient>
	<circle class="st3" cx="30.5" cy="10.5" r="1.4"/>
	<linearGradient id="SVGID_5_" gradientUnits="userSpaceOnUse" x1="11.5299" y1="-4.9074" x2="109.5775" y2="113.8545">
		<stop  offset="0" style="stop-color:#660066"/>
		<stop  offset="1" style="stop-color:#B700B7"/>
	</linearGradient>
	<circle class="st4" cx="24.2" cy="10.5" r="1.4"/>
	<linearGradient id="SVGID_6_" gradientUnits="userSpaceOnUse" x1="8.6026" y1="-0.8395" x2="106.6502" y2="117.9224">
		<stop  offset="0" style="stop-color:#660066"/>
		<stop  offset="1" style="stop-color:#B700B7"/>
	</linearGradient>
	<circle class="st5" cx="18" cy="10.5" r="1.4"/>
	<linearGradient id="SVGID_7_" gradientUnits="userSpaceOnUse" x1="35.5168" y1="-17.5633" x2="106.5168" y2="68.4367">
		<stop  offset="0" style="stop-color:#660066"/>
		<stop  offset="1" style="stop-color:#B700B7"/>
	</linearGradient>
	<path class="st6" d="M47.8,20.2h6.8l7.4,6.2c0.4,0.3,0.8,0.5,1.3,0.5c0.3,0,0.6-0.1,0.9-0.2c0.7-0.3,1.2-1,1.2-1.8v-4.7h4.5
		c2.2,0,4-1.8,4-4V5c0-2.2-1.8-4-4-4h-22c-2.2,0-4,1.8-4,4v11.2C43.8,18.4,45.5,20.2,47.8,20.2z M45.8,5c0-1.1,0.9-2,2-2h22
		c1.1,0,2,0.9,2,2v11.2c0,1.1-0.9,2-2,2h-6.5v6.7l-8-6.7h-7.5c-1.1,0-2-0.9-2-2V5z"/>
	<linearGradient id="SVGID_8_" gradientUnits="userSpaceOnUse" x1="32.7509" y1="-15.2798" x2="103.7509" y2="70.7202">
		<stop  offset="0" style="stop-color:#660066"/>
		<stop  offset="1" style="stop-color:#B700B7"/>
	</linearGradient>
	<path class="st7" d="M58.5,14.7c-0.4,0-0.7,0.1-0.9,0.3c-0.2,0.2-0.4,0.5-0.4,0.9c0,0.3,0.1,0.6,0.3,0.9c0.2,0.2,0.5,0.3,0.9,0.3
		s0.7-0.1,0.9-0.3c0.2-0.2,0.4-0.5,0.4-0.9c0-0.3-0.1-0.6-0.4-0.9C59.2,14.8,58.9,14.7,58.5,14.7z"/>
	<linearGradient id="SVGID_9_" gradientUnits="userSpaceOnUse" x1="36.2209" y1="-18.1445" x2="107.2209" y2="67.8555">
		<stop  offset="0" style="stop-color:#660066"/>
		<stop  offset="1" style="stop-color:#B700B7"/>
	</linearGradient>
	<path class="st8" d="M57.7,7.7c0.2-0.2,0.5-0.4,0.9-0.4c0.8,0,1.2,0.4,1.2,1.3c0,0.3-0.1,0.6-0.2,0.8c-0.2,0.3-0.5,0.6-0.9,1
		c-0.5,0.4-0.8,0.8-1,1.3c-0.2,0.4-0.3,1-0.3,1.7h2l0-0.5c0.1-0.5,0.3-1,0.7-1.3l0.6-0.6c0.5-0.5,0.8-0.9,1-1.3
		C62,9.4,62.1,9,62.1,8.5c0-1-0.3-1.7-0.9-2.3c-0.6-0.5-1.5-0.8-2.6-0.8c-1.1,0-2,0.3-2.6,0.8c-0.6,0.6-1,1.3-1,2.3h2.3
		C57.4,8.2,57.5,7.9,57.7,7.7z"/>
</g>
</svg>
