<?xml version="1.0" encoding="utf-8"?>
<!-- Generator: Adobe Illustrator 19.2.0, SVG Export Plug-In . SVG Version: 6.00 Build 0)  -->
<svg version="1.1" id="Layer_1" xmlns="http://www.w3.org/2000/svg" xmlns:xlink="http://www.w3.org/1999/xlink" x="0px" y="0px"
	 width="92px" height="92px" viewBox="0 0 92 92" style="enable-background:new 0 0 92 92;" xml:space="preserve">
<style type="text/css">
	.st0{fill:url(#SVGID_1_);}
	.st1{fill:url(#SVGID_2_);}
	.st2{fill:url(#SVGID_3_);}
	.st3{fill:url(#SVGID_4_);}
	.st4{fill:url(#SVGID_5_);}
	.st5{fill:url(#SVGID_6_);}
	.st6{fill:url(#SVGID_7_);}
	.st7{fill:url(#SVGID_8_);}
</style>
<g>
	<linearGradient id="SVGID_1_" gradientUnits="userSpaceOnUse" x1="29.3438" y1="-9.9126" x2="92.0104" y2="69.0874">
		<stop  offset="0" style="stop-color:#660066"/>
		<stop  offset="1" style="stop-color:#B700B7"/>
	</linearGradient>
	<path class="st0" d="M38,19c0.2,0,0.4,0,0.6,0c8.7,0,17.4,0,26.2,0c0.4,0,1,0,1.3-0.2c0.4-0.2,0.8-0.6,0.7-0.9
		c-0.1-0.3-0.7-0.6-1.1-0.7c-0.3-0.1-0.8-0.1-1.2-0.1c-4.3,0-8.5,0-12.8,0c-2.6,0-5.2,0-7.8,0c-1.9,0-3.7,0-5.6,0
		c-1.1,0-1.6,0.3-1.7,0.9C36.4,18.5,37,18.9,38,19z"/>
	<linearGradient id="SVGID_2_" gradientUnits="userSpaceOnUse" x1="24.1346" y1="-5.7805" x2="86.8013" y2="73.2195">
		<stop  offset="0" style="stop-color:#660066"/>
		<stop  offset="1" style="stop-color:#B700B7"/>
	</linearGradient>
	<path class="st1" d="M37.5,23.7c0.1,0,0.3,0,0.4,0c6,0,12,0,18,0c0.3,0,0.7,0,0.9-0.2c0.3-0.2,0.5-0.6,0.5-0.9
		c0-0.3-0.5-0.6-0.8-0.7c-0.2-0.1-0.6-0.1-0.8-0.1c-2.9,0-5.9,0-8.8,0c-1.8,0-3.6,0-5.4,0c-1.3,0-2.6,0-3.9,0
		c-0.7,0-1.1,0.3-1.1,0.9C36.4,23.3,36.8,23.6,37.5,23.7z"/>
	<linearGradient id="SVGID_3_" gradientUnits="userSpaceOnUse" x1="21.9463" y1="-4.0446" x2="84.6129" y2="74.9554">
		<stop  offset="0" style="stop-color:#660066"/>
		<stop  offset="1" style="stop-color:#B700B7"/>
	</linearGradient>
	<path class="st2" d="M65.5,32.4c-0.3-0.1-0.8-0.1-1.2-0.1c-4.3,0-8.5,0-12.8,0c-2.6,0-5.2,0-7.8,0c-1.9,0-3.7,0-5.6,0
		c-1.1,0-1.6,0.3-1.7,0.9c0,0.5,0.6,0.9,1.6,1c0.2,0,0.4,0,0.6,0c8.7,0,17.4,0,26.2,0c0.4,0,1,0,1.3-0.2c0.4-0.2,0.8-0.6,0.7-0.9
		C66.6,32.8,66,32.5,65.5,32.4z"/>
	<linearGradient id="SVGID_4_" gradientUnits="userSpaceOnUse" x1="16.7371" y1="8.755757e-02" x2="79.4038" y2="79.0876">
		<stop  offset="0" style="stop-color:#660066"/>
		<stop  offset="1" style="stop-color:#B700B7"/>
	</linearGradient>
	<path class="st3" d="M37.5,38.9c0.1,0,0.3,0,0.4,0c6,0,12,0,18,0c0.3,0,0.7,0,0.9-0.2c0.3-0.2,0.5-0.6,0.5-0.9
		c0-0.3-0.5-0.6-0.8-0.7c-0.2-0.1-0.6-0.1-0.8-0.1c-2.9,0-5.9,0-8.8,0c-1.8,0-3.6,0-5.4,0c-1.3,0-2.6,0-3.9,0
		c-0.7,0-1.1,0.3-1.1,0.9C36.4,38.5,36.8,38.8,37.5,38.9z"/>
	<linearGradient id="SVGID_5_" gradientUnits="userSpaceOnUse" x1="15.1178" y1="1.3721" x2="77.7844" y2="80.3721">
		<stop  offset="0" style="stop-color:#660066"/>
		<stop  offset="1" style="stop-color:#B700B7"/>
	</linearGradient>
	<path class="st4" d="M27.4,26.1C27.4,26.1,27.4,26.1,27.4,26.1c0.3,0,0.6-0.2,0.8-0.4l6.2-9c0.3-0.4,0.2-1-0.2-1.3
		c-0.4-0.3-1-0.2-1.3,0.2l-5.5,8l-3.5-4.2c-0.3-0.4-0.9-0.5-1.3-0.1c-0.4,0.3-0.5,0.9-0.1,1.3l4.3,5.2C26.8,26,27.1,26.1,27.4,26.1z
		"/>
	<linearGradient id="SVGID_6_" gradientUnits="userSpaceOnUse" x1="15.8395" y1="0.7996" x2="78.5062" y2="79.7996">
		<stop  offset="0" style="stop-color:#660066"/>
		<stop  offset="1" style="stop-color:#B700B7"/>
	</linearGradient>
	<path class="st5" d="M69.1,81.6c3.1-1.6,4.8-3.9,5.1-6.6c1.2-0.3,2.1-1.4,2.1-2.7V2.8C76.3,1.3,75,0,73.4,0h-57
		c-1.6,0-2.8,1.3-2.8,2.8v69.3c0,1.6,1.3,2.8,2.8,2.8h24.7c4.4,3.2,8.9,6.5,13.4,9.6c2.4,1.6,5.1,1.7,7.8,0.4
		C64.6,83.8,66.8,82.7,69.1,81.6z M74.4,72.2c0,0.3-0.1,0.5-0.3,0.7c-0.2-1.1-0.5-2.2-1.1-3.4c-0.5-1-1-2-1.5-3h2.9V72.2z M15.5,2.8
		c0-0.5,0.4-0.9,0.9-0.9h57c0.5,0,0.9,0.4,0.9,0.9v5.7H15.5V2.8z M15.5,10.4h58.9v54.1h-3.9c-1-1.9-2-3.8-2.9-5.8
		c-1.6-3.4-4.5-3.9-6.9-1.2c-0.7-0.3-1.3-0.4-1.8-0.5c1.3-0.9,2.1-2.3,2.1-3.9c0-2.6-2.1-4.7-4.7-4.7H32.6c-2.6,0-4.7,2.1-4.7,4.7
		c0,2.6,2.1,4.7,4.7,4.7h8.9c0.2,0.5,0.5,0.9,0.7,1.4c0.9,1.8,1.8,3.5,2.7,5.3H15.5V10.4z M40.6,56h-8c-1.6,0-2.8-1.3-2.8-2.8
		s1.3-2.8,2.8-2.8h23.7c1.6,0,2.8,1.3,2.8,2.8S57.9,56,56.4,56h-8.2c-0.5-0.9-0.9-1.9-1.4-2.8c-1-1.8-2.9-2.5-4.6-1.7
		C40.6,52.3,39.9,54.2,40.6,56z M56.4,57.9C56.4,57.9,56.4,57.9,56.4,57.9c-0.3,0.3-0.7,0.7-1.1,1.2c-1.8-0.9-3.4-0.4-4.9,1.2
		c-0.4-0.8-0.8-1.6-1.2-2.3H56.4z M15.5,72.2v-5.7h30.3c0.6,1.2,1.2,2.4,1.8,3.6c-0.1,0.1-0.2,0.3-0.3,0.4c-0.3-0.2-0.6-0.4-0.9-0.5
		c-2.8-0.8-5.2,0.4-6.1,3.1H16.5C15.9,73.1,15.5,72.7,15.5,72.2z M55.2,83.1c-4.4-3.1-8.8-6.3-13.2-9.4c0.9-2.3,2.3-2.9,4.3-2.2
		c0.8,0.3,1.6,0.7,2.4,1c0.4,0.2,0.9,0.1,1.3,0.1c0-0.5,0.1-1-0.1-1.4c-1-2.1-2.1-4.1-3.1-6.2c-1.4-2.9-3-5.8-4.3-8.7
		c-0.3-0.7-0.4-1.7-0.2-2.4c0.1-0.4,1.1-1,1.5-0.9c0.7,0.2,1.5,0.7,1.8,1.3c1.8,3.5,3.6,7,5.4,10.5c0.5,0.9,0.9,1.9,1.4,2.7
		c0.2,0.3,0.7,0.4,1.1,0.6c0.1-0.4,0.3-0.9,0.2-1.2c-0.5-1.1-1-2.1-1.6-3.2c-0.8-1.6-0.6-2.9,0.5-3.4c1.1-0.5,2.1,0.1,2.9,1.6
		c0.5,1,0.9,2,1.5,2.9c0.2,0.3,0.7,0.4,1.1,0.6c0.1-0.4,0.2-0.8,0.1-1.1c-0.4-0.9-0.9-1.7-1.3-2.6c-0.5-1.1-0.4-2.2,0.8-2.8
		c1.2-0.6,2.1,0,2.6,1.1c0.4,0.8,0.8,1.7,1.3,2.4c0.2,0.3,0.7,0.3,1.1,0.4c0.1-0.4,0.3-0.7,0.2-1c-0.1-0.5-0.5-1-0.6-1.5
		c-0.4-1.1-0.3-2.1,0.9-2.6c1.1-0.5,1.9,0,2.4,0.9c0.6,1.1,1.2,2.2,1.7,3.3c1.4,2.7,2.8,5.4,4.1,8.1c2.1,4.4,0.9,7.9-3.3,10.1
		c-2.2,1.1-4.3,2.2-6.5,3.3C59.4,84.5,57.2,84.5,55.2,83.1z"/>
	<linearGradient id="SVGID_7_" gradientUnits="userSpaceOnUse" x1="7.9342" y1="7.0705" x2="70.6009" y2="86.0705">
		<stop  offset="0" style="stop-color:#660066"/>
		<stop  offset="1" style="stop-color:#B700B7"/>
	</linearGradient>
	<path class="st6" d="M80.2,80.5l-1-1.8c-0.2-0.4-0.6-0.8-1.1-0.9c-0.5-0.2-1-0.1-1.4,0.1l-16.8,8.8c-0.5,0.2-0.8,0.6-0.9,1.1
		c-0.2,0.5-0.1,1,0.1,1.4l1,1.8c0.3,0.6,1,1,1.7,1c0.3,0,0.6-0.1,0.9-0.2L79.4,83C80.3,82.5,80.6,81.4,80.2,80.5z M61.7,90.1l-1-1.8
		l16.8-8.8l1,1.8L61.7,90.1z"/>
	<linearGradient id="SVGID_8_" gradientUnits="userSpaceOnUse" x1="6.5337" y1="8.1814" x2="69.2003" y2="87.1814">
		<stop  offset="0" style="stop-color:#660066"/>
		<stop  offset="1" style="stop-color:#B700B7"/>
	</linearGradient>
	<path class="st7" d="M31.7,40.3c0.4,0.4,1,0.4,1.3,0c0.4-0.4,0.4-1,0-1.3l-3.7-3.6l3.5-3.5c0.4-0.4,0.4-1,0-1.3
		c-0.4-0.4-1-0.4-1.3,0L28,34.1l-3.3-3.2c-0.4-0.4-1-0.4-1.3,0c-0.4,0.4-0.4,1,0,1.3l3.3,3.2l-3.3,3.4c-0.4,0.4-0.4,1,0,1.3
		c0.4,0.4,1,0.4,1.3,0l3.3-3.4L31.7,40.3z"/>
</g>
</svg>
