<svg width="25" height="20" viewBox="0 0 25 20" fill="none" xmlns="http://www.w3.org/2000/svg">
<path opacity="0.33" d="M2.5 0H22.5C23.163 0 23.7989 0.263392 24.2678 0.732233C24.7366 1.20107 25 1.83696 25 2.5V17.5C25 18.163 24.7366 18.7989 24.2678 19.2678C23.7989 19.7366 23.163 20 22.5 20H2.5C1.83696 20 1.20107 19.7366 0.732233 19.2678C0.263392 18.7989 0 18.163 0 17.5V2.5C0 1.83696 0.263392 1.20107 0.732233 0.732233C1.20107 0.263392 1.83696 0 2.5 0V0ZM12.5 8.75L22.5 2.5H2.5L12.5 8.75ZM2.5 17.5H22.5V5.4625L12.5 11.6988L2.5 5.4625V17.5V17.5Z" fill="#252525"/>
</svg>
