<svg width="25" height="24" viewBox="0 0 25 24" fill="none" xmlns="http://www.w3.org/2000/svg">
<path opacity="0.33" d="M12.0467 18.0445C8.49246 18.0445 6.902 16.2981 6.902 14.9876C6.902 14.3157 7.39794 13.8451 8.08185 13.8451C9.60165 13.8451 9.2097 16.0288 12.0467 16.0288C13.4998 16.0288 14.3024 15.2409 14.3024 14.433C14.3024 13.9464 14.0624 13.4091 13.1065 13.1732L9.94427 12.384C7.39794 11.7454 6.93666 10.3695 6.93666 9.07505C6.93666 6.38874 9.46567 5.37953 11.8414 5.37953C14.0291 5.37953 16.6087 6.58871 16.6087 8.2005C16.6087 8.89107 16.0101 9.29369 15.3289 9.29369C14.0291 9.29369 14.2677 7.49659 11.6534 7.49659C10.3562 7.49659 9.63631 8.08318 9.63631 8.9244C9.63631 9.76429 10.6628 10.0309 11.5507 10.2349L13.8918 10.7548C16.4554 11.3254 17.1047 12.8212 17.1047 14.2317C17.1047 16.4141 15.4289 18.0445 12.0467 18.0445V18.0445ZM20.0136 3.98772C21.3147 5.28661 22.2797 6.88288 22.8254 8.63848C23.371 10.3941 23.4808 12.2562 23.1452 14.0637C23.8591 15.3316 24.1385 16.7983 23.9408 18.2399C23.7431 19.6814 23.0792 21.0187 22.0503 22.0476C21.0214 23.0765 19.6841 23.7405 18.2425 23.9382C16.801 24.1359 15.3343 23.8564 14.0664 23.1425C12.2585 23.4787 10.396 23.3694 8.63989 22.824C6.88379 22.2786 5.28702 21.3135 3.98772 20.0123C2.6869 18.7133 1.72209 17.1169 1.17668 15.3613C0.631284 13.6057 0.521718 11.7437 0.85746 9.93627C0.143554 8.66837 -0.135876 7.20171 0.0618218 5.76013C0.25952 4.31856 0.923486 2.98126 1.95237 1.95237C2.98126 0.923486 4.31856 0.25952 5.76013 0.0618218C7.20171 -0.135876 8.66837 0.143554 9.93627 0.85746C11.7441 0.521263 13.6067 0.630601 15.3628 1.17601C17.1189 1.72143 18.7156 2.68649 20.0149 3.98772H20.0136ZM6.6687 2.66789C5.89045 2.6678 5.12908 2.89476 4.47792 3.32096C3.82675 3.74717 3.31407 4.3541 3.00273 5.06735C2.69139 5.78061 2.59491 6.56921 2.72511 7.33649C2.85531 8.10377 3.20654 8.81639 3.73575 9.38701C3.25785 10.9 3.20453 12.5152 3.58161 14.0564C3.95869 15.5976 4.75168 17.0057 5.87414 18.1272C6.99561 19.2492 8.40356 20.0418 9.94451 20.4186C11.4855 20.7954 13.1003 20.7421 14.613 20.2642C15.3712 20.9707 16.3739 21.3553 17.4101 21.337C18.4462 21.3188 19.4348 20.899 20.1676 20.1662C20.9004 19.4335 21.3201 18.4449 21.3384 17.4087C21.3567 16.3726 20.9721 15.3698 20.2656 14.6117C20.7434 13.099 20.7968 11.4841 20.4199 9.94318C20.0431 8.40222 19.2505 6.99428 18.1285 5.8728C17.0072 4.75059 15.5993 3.95774 14.0584 3.58067C12.5174 3.2036 10.9025 3.25678 9.38968 3.73442C8.65042 3.04725 7.67801 2.6661 6.6687 2.66789V2.66789Z" fill="#252525"/>
</svg>
