<?xml version="1.0" encoding="utf-8"?>
<!-- Generator: Adobe Illustrator 19.2.0, SVG Export Plug-In . SVG Version: 6.00 Build 0)  -->
<svg version="1.1" id="Layer_1" xmlns="http://www.w3.org/2000/svg" xmlns:xlink="http://www.w3.org/1999/xlink" x="0px" y="0px"
	 width="24px" height="24px" viewBox="0 0 24 24" style="enable-background:new 0 0 24 24;" xml:space="preserve">
<style type="text/css">
	.st0{opacity:0.33;fill:#252525;enable-background:new    ;}
</style>
<path class="st0" d="M15.6,18.6c-0.4,0-0.9,0-1.3-0.2c-0.5-0.2-1.2-0.4-2-0.7c-1.5-0.6-3.7-2-5.9-5.2l-0.1-0.1
	c-0.4-0.5-0.6-1-0.8-1.3C5,10.3,4.8,9.5,4.8,8.7c0-1.6,0.8-2.5,1.2-2.9c0.1-0.2,0.2-0.2,0.3-0.3l0.5-0.2l1.3,0l0.4,1
	C8.8,7,9.3,8,9.4,8.5l0.1,0.1l0,0L9.7,9L9.4,9.5C9.3,9.6,9.3,9.7,9.2,9.8L9,10c-0.1,0.2-0.2,0.3-0.3,0.3l-0.1,0.1
	c0,0-0.2,0.2-0.2,0.3c0,0-0.1,0.2,0.1,0.4c0.3,0.4,1,1.5,1.9,2.4c1.1,1,2.2,1.5,2.6,1.6c0.1,0,0.2,0.1,0.2,0.1
	c0.2,0.1,0.3,0.1,0.4,0.1c0.1,0,0.2,0,0.3-0.2c0.1-0.2,0.5-0.6,0.9-1l0.6-0.7l1.7,0.7c0.5,0.3,1,0.5,1.2,0.6l0.8,0.4L19,16.1
	c0,0.2-0.1,0.5-0.2,0.8L18.7,17c-0.1,0.2-0.2,0.3-0.3,0.5c-0.2,0.2-0.4,0.3-0.6,0.5c-0.5,0.3-1,0.5-1.3,0.6
	C16.2,18.6,15.9,18.6,15.6,18.6z"/>
<path class="st0" d="M12,24c-2.2,0-4.3-0.6-6.2-1.7L0.1,24L2,18.6c-1.3-2-2-4.2-2-6.6C0,5.4,5.4,0,12,0c6.6,0,12,5.4,12,12
	C24,18.6,18.6,24,12,24z M6.1,20.1l0.4,0.3C8.1,21.4,10,22,12,22c5.5,0,10-4.5,10-10c0-5.5-4.5-10-10-10C6.5,2,2,6.5,2,12
	c0,2.1,0.7,4.1,1.9,5.8l0.3,0.4l-0.9,2.7L6.1,20.1z"/>
</svg>
