<svg width="24" height="24" viewBox="0 0 24 24" fill="none" xmlns="http://www.w3.org/2000/svg">
<g opacity="0.33">
<path fill-rule="evenodd" clip-rule="evenodd" d="M18.7882 18.7882C16.9879 20.5886 14.5461 21.6 12 21.6C9.45392 21.6 7.01212 20.5886 5.21178 18.7882C3.41143 16.9879 2.4 14.5461 2.4 12C2.4 9.45392 3.41143 7.01212 5.21178 5.21178C7.01212 3.41143 9.45392 2.4 12 2.4C14.5461 2.4 16.9879 3.41143 18.7882 5.21178C20.5886 7.01212 21.6 9.45392 21.6 12C21.6 14.5461 20.5886 16.9879 18.7882 18.7882ZM0 12C0 18.6276 5.3724 24 12 24C18.6276 24 24 18.6276 24 12C24 5.3724 18.6276 0 12 0C5.3724 0 0 5.3724 0 12ZM12.1251 6.1164L12.1251 6.1164C11.9063 6.10053 11.4519 6.06482 11.478 5.57143C11.4897 5.35714 11.5808 5 12.0613 5C12.1134 5.00046 12.1655 5.00311 12.2175 5.00794L12.2222 5.00826C12.2596 5.01079 12.2955 5.01323 12.3243 5.01323C12.336 5.01321 12.3478 5.01232 12.3594 5.01058L12.3959 5.00926C15.4138 5.11508 18.0281 7.98809 17.9917 11.1561C17.9904 11.1976 17.9929 11.2455 17.9954 11.2947L17.9956 11.2976C18.0047 11.5093 18.0151 11.7698 17.855 11.9458C17.8055 11.9974 17.7458 12.0376 17.6798 12.0639C17.6138 12.0901 17.543 12.1017 17.4722 12.0979H17.4566C16.9413 12.0873 16.9332 11.5852 16.9293 11.343L16.9293 11.3426C16.9291 11.332 16.9289 11.3215 16.9287 11.3112C16.9278 11.2545 16.927 11.2022 16.9215 11.1574C16.5478 8.05952 15.199 6.6045 12.2696 6.13095C12.2292 6.12434 12.1771 6.12037 12.1251 6.1164ZM16.5934 15.0079C16.6548 15.0594 16.7169 15.1102 16.7796 15.1601V15.1614L16.7797 15.1615C17.251 15.5384 17.838 16.008 17.5165 16.9603C17.1493 18.0476 15.9554 19 14.9607 19H14.9438C14.9262 18.9997 14.9087 18.997 14.8917 18.9921L14.768 18.9603L14.758 18.9579C14.6131 18.9238 14.4174 18.8777 14.2316 18.7937C12.1172 17.8386 10.2919 16.5688 8.80766 15.0172C7.28957 13.4325 6.08786 11.5119 5.23248 9.3082C4.93563 8.5463 4.92261 7.81482 5.19602 7.19048C5.47855 6.5463 6.0449 6.05688 6.83258 5.7791C7.1259 5.66858 7.44866 5.66952 7.74135 5.78175C8.42749 6.0463 10.0562 8.37434 10.0953 9.14815C10.1304 9.82936 9.6305 10.1852 9.36229 10.3757C8.88838 10.713 8.80245 11.1257 9.07065 11.7606C9.62659 13.0701 10.5992 14.0622 11.9597 14.7103C12.1025 14.7838 12.2593 14.8249 12.4193 14.8307C12.6484 14.8307 12.8359 14.7116 12.9896 14.4683C13.3372 13.9167 13.7577 13.6362 14.2394 13.6362C14.5975 13.6362 14.9763 13.7884 15.3982 14.0979C15.4667 14.1483 15.5352 14.1985 15.6039 14.2487L15.6457 14.2793C15.9609 14.5105 16.2867 14.7495 16.5934 15.0079ZM11.9154 9.02513C12.0404 8.64682 12.3959 8.63757 12.5651 8.6336C13.0169 8.62169 13.5129 8.86905 13.9244 9.3082C14.3345 9.74471 14.5753 10.2923 14.5701 10.7765C14.5845 11.2394 14.4243 11.4947 14.0923 11.537C14.0716 11.5392 14.0507 11.5401 14.0298 11.5397C13.7538 11.5397 13.539 11.3069 13.5064 10.9709C13.4387 10.254 13.095 9.8664 12.4284 9.75397C12.2448 9.72355 12.0417 9.66667 11.9363 9.48148C11.8647 9.35582 11.8581 9.20238 11.9154 9.02513Z" fill="#252525"/>
</g>
</svg>
