<svg id="Layer_1" data-name="Layer 1" xmlns="http://www.w3.org/2000/svg" viewBox="0 0 487 487"><defs><style>.cls-1{fill:#223f59;}</style></defs><title>calculator_1</title><path class="cls-1" d="M249.86,265.78a7.6,7.6,0,0,0-2.74-.09,18.16,18.16,0,0,1-16.06-18,8,8,0,1,0-16,0,34.17,34.17,0,0,0,25.13,32.9v8a8,8,0,1,0,16,0v-7.5a34.11,34.11,0,0,0-7-67.5,18.14,18.14,0,1,1,18.14-18.14,8,8,0,0,0,16,0A34.17,34.17,0,0,0,256.18,162v-7.27a8,8,0,1,0-16,0v7.76a34.11,34.11,0,0,0,9,67,18.13,18.13,0,0,1,.66,36.24Z"/><path class="cls-1" d="M133.36,222.17A115.84,115.84,0,1,0,249.19,106.34,115.84,115.84,0,0,0,133.36,222.17Zm115.84-99.86a99.86,99.86,0,1,1-99.86,99.86A99.86,99.86,0,0,1,249.19,122.31Z"/><path class="cls-1" d="M404.41,357.7l-62.58,29.57a51,51,0,0,0-43.45-26.81l-57.77-1.59a61,61,0,0,1-26.25-6.78l-5.88-3a103.68,103.68,0,0,0-96,.1l.37-13.32a8,8,0,0,0-7.77-8.21l-63.34-1.74a8,8,0,0,0-8.2,7.77l-3.83,139a8,8,0,0,0,7.77,8.21l63.34,1.74H101a8,8,0,0,0,8-7.77l.18-6.65,16.46-8.81a28.23,28.23,0,0,1,21.07-2.31L245,484.64l.52.13a105.19,105.19,0,0,0,21.6,2.23,106.58,106.58,0,0,0,44.52-9.72,7.42,7.42,0,0,0,1-.55l142.48-92.16a8,8,0,0,0,2.62-10.64A40.35,40.35,0,0,0,404.41,357.7ZM45.87,465.11l3.39-123,47.37,1.3-3.39,123ZM304.41,463A90.57,90.57,0,0,1,249,469.2l-98-27.51a44.17,44.17,0,0,0-32.93,3.6l-8.41,4.51L111.94,368a87.81,87.81,0,0,1,89.2-4.76l5.88,3a77.15,77.15,0,0,0,33.16,8.57L298,376.43a35,35,0,0,1,33.3,27.92l-86-2.38a8,8,0,1,0-.44,16l95,2.61h.22a8,8,0,0,0,8-7.77,50.7,50.7,0,0,0-.77-10.36l64.18-30.33.19-.09a24.41,24.41,0,0,1,27.6,3.87Z"/><path class="cls-1" d="M257.18,83.88V8a8,8,0,1,0-16,0V83.88a8,8,0,1,0,16,0Z"/><path class="cls-1" d="M317.09,83.88V47.93a8,8,0,1,0-16,0V83.88a8,8,0,1,0,16,0Z"/><path class="cls-1" d="M197.27,83.88V47.93a8,8,0,1,0-16,0V83.88a8,8,0,1,0,16,0Z"/></svg>