<svg id="Layer_1" data-name="Layer 1" xmlns="http://www.w3.org/2000/svg" viewBox="0 0 487 487"><defs><style>.cls-1{fill:#223f59;}</style></defs><title>calculator_2</title><path class="cls-1" d="M374.75,78.79c.21,0,.43,0,.65,0a8,8,0,0,0,1.1-.08A17.85,17.85,0,0,1,394,96.56a8,8,0,0,0,16,0,33.87,33.87,0,0,0-26.58-33V55.85a8,8,0,1,0-16,0v8a33.82,33.82,0,0,0,8.74,66.48,17.84,17.84,0,1,1-17.84,17.85,8,8,0,1,0-16,0,33.87,33.87,0,0,0,25.08,32.67v8.75a8,8,0,1,0,16,0v-8.39a33.82,33.82,0,0,0-7.24-66.85,17.84,17.84,0,0,1-1.4-35.62Z"/><path class="cls-1" d="M376.61,8.81c-49.14,0-91.07,32.06-106.78,75H71.58c-4.39,0-8,4-8,8.35l-1.89,280.2H5.2C.79,372.35-3,375.55-3,380v35.56A62.74,62.74,0,0,0,56.9,478v.18H303.51V478c2,.07,2.82.23,4.08.23h.17a62.74,62.74,0,0,0,62.64-62.74V235.67c2,.11,4.11.17,6.18.17,62.53,0,113.41-51,113.41-113.52S439.14,8.81,376.61,8.81ZM59.94,462.21h-.05A47,47,0,0,1,13,415.44V388.33H244.61v27a62.66,62.66,0,0,0,18.49,44.4c.84.84,1.88,1.49,2.76,2.48Zm294.49-46.77a46.76,46.76,0,0,1-46.67,46.77h-.15a47.11,47.11,0,0,1-47-46.88V380a7.37,7.37,0,0,0-7.62-7.61H77.68L79.51,99.78H265.39A120,120,0,0,0,263.2,122a112.63,112.63,0,0,0,9.64,45.71H197.4a8,8,0,0,0,0,16h84.11a112.72,112.72,0,0,0,72.92,50Zm22.17-195.57A97.43,97.43,0,1,1,474,122.44,97.42,97.42,0,0,1,376.61,219.87Z"/><path class="cls-1" d="M146.13,220.83c-14.1,0-25.57,11.1-25.57,24.75s11.47,24.75,25.57,24.75,25.57-11.1,25.57-24.75S160.23,220.83,146.13,220.83Zm0,33.53c-5.29,0-9.59-3.94-9.59-8.78s4.3-8.78,9.59-8.78,9.59,3.94,9.59,8.78S151.42,254.37,146.13,254.37Z"/><path class="cls-1" d="M189.41,245.55a8,8,0,0,0,8,8H303.89a8,8,0,1,0,0-16H197.4A8,8,0,0,0,189.41,245.55Z"/><path class="cls-1" d="M146.13,151.4c-14.1,0-25.57,11.11-25.57,24.76s11.47,24.75,25.57,24.75,25.57-11.1,25.57-24.75S160.23,151.4,146.13,151.4Zm0,33.54c-5.29,0-9.59-3.94-9.59-8.78s4.3-8.78,9.59-8.78,9.59,3.94,9.59,8.78-4.31,8.78-9.59,8.78Z"/><path class="cls-1" d="M146.13,290.26c-14.1,0-25.57,11.1-25.57,24.75s11.47,24.75,25.57,24.75S171.7,328.66,171.7,315,160.23,290.26,146.13,290.26Zm0,33.53c-5.29,0-9.59-3.94-9.59-8.78s4.3-8.78,9.59-8.78,9.59,3.94,9.59,8.78S151.42,323.79,146.13,323.79Z"/><path class="cls-1" d="M303.89,307.46H197.4a8,8,0,0,0,0,16H303.89a8,8,0,0,0,0-16Z"/></svg>