<svg id="Layer_1" data-name="Layer 1" xmlns="http://www.w3.org/2000/svg" viewBox="0 0 487 487"><defs><style>.cls-1{fill:#31d5db;}</style></defs><title>calculator_3</title><path class="cls-1" d="M389.58,216.25H308.47a8,8,0,0,1,0-16h66.18L256.43,22.45,138.2,200.25h66.18a8,8,0,1,1,0,16H123.27a8,8,0,0,1-6.66-12.43L249.77,3.57a8,8,0,0,1,13.32,0L396.25,203.82a8,8,0,0,1-6.66,12.43Z"/><path class="cls-1" d="M308.47,487a8,8,0,0,1-8-8V208.25a8,8,0,1,1,16,0V479A8,8,0,0,1,308.47,487Z"/><path class="cls-1" d="M204.38,264.2a8,8,0,0,1-8-8v-48a8,8,0,0,1,16,0v48A8,8,0,0,1,204.38,264.2Z"/><path class="cls-1" d="M99.7,482.32a8,8,0,0,1-6.28-12.95L229.67,296.28a8,8,0,0,1,12.57,9.9L106,479.27A8,8,0,0,1,99.7,482.32Z"/><path class="cls-1" d="M204.38,483.49a40.75,40.75,0,1,1,40.75-40.75A40.79,40.79,0,0,1,204.38,483.49Zm0-65.5a24.75,24.75,0,1,0,24.75,24.75A24.78,24.78,0,0,0,204.38,418Z"/><path class="cls-1" d="M130.16,373a40.75,40.75,0,1,1,40.75-40.75A40.79,40.79,0,0,1,130.16,373Zm0-65.5a24.75,24.75,0,1,0,24.75,24.75A24.78,24.78,0,0,0,130.16,307.47Z"/></svg>