<svg id="Layer_1" data-name="Layer 1" xmlns="http://www.w3.org/2000/svg" viewBox="0 0 487 487"><defs><style>.cls-1{fill:#31d5db;}</style></defs><title>calculator_4</title><path class="cls-1" d="M243.27,173.25a67.65,67.65,0,0,0,67.57-67.57,66.49,66.49,0,0,0-19.73-47.62,67.48,67.48,0,0,0-47.84-19.5A66.49,66.49,0,0,0,195.66,58.3a67.48,67.48,0,0,0-19.5,47.84,66.87,66.87,0,0,0,67.11,67.11ZM191.4,105.68c0-28.35,23.27-51.41,51.87-51.41a51.93,51.93,0,0,1,51.87,51.87A50.85,50.85,0,0,1,280,142.59a52,52,0,0,1-88.56-36.91Z"/><path class="cls-1" d="M223.41,137.87a5,5,0,0,1,3.39.29l.4.13a9.34,9.34,0,0,0,3.32,1,8,8,0,0,0,1.85.48,12.73,12.73,0,0,1,1.78.41,10.62,10.62,0,0,0,3.83.49h.42v9.19h12v-9.65l.12,0a16.93,16.93,0,0,0,4.2-1.86,9.68,9.68,0,0,0,2.61-1.54c.35-.26.71-.53,1.12-.8l.08-.07a19.78,19.78,0,0,0,2.75-3.21,9,9,0,0,0,1.45-2.19c.27-.51.56-1,.91-1.56l1.44-4.25a14.62,14.62,0,0,0,.49-4.75,10.62,10.62,0,0,0-.49-3.83c-.13-.4-.23-.76-.32-1.1a7.66,7.66,0,0,0-1.09-2.64c-.1-.21-.21-.45-.32-.69a8.65,8.65,0,0,0-1.61-2.65,11.74,11.74,0,0,1-1.1-1.32,12.71,12.71,0,0,0-1.2-1.44,8.83,8.83,0,0,0-3.3-2.38,9,9,0,0,0-2.56-1.53l-.76-.35a8.7,8.7,0,0,1-1.74-.87,9.61,9.61,0,0,0-1.94-1,31.57,31.57,0,0,1-3.61-1.35l-.11-.05h-.12a3.12,3.12,0,0,1-1.48-.77,2.72,2.72,0,0,0-1.11-.58,2,2,0,0,1-.72-.34,2.72,2.72,0,0,0-1.11-.58,2,2,0,0,1-.72-.34l-1.38-1.38a1.92,1.92,0,0,1-.77-1.48v-.21l-.15-.15c-.31-.31-.31-1.13-.31-1.48v-2.3a3.66,3.66,0,0,1,.2-.76,5.29,5.29,0,0,0,.24-.87,3.21,3.21,0,0,0,.45-1,2,2,0,0,1,.34-.72l1.38-1.38a3,3,0,0,1,1.94-.77h.12l.11-.05a3.67,3.67,0,0,1,2.07-.41h2.76a3.67,3.67,0,0,1,2.07.41l.11.05h.12a5.09,5.09,0,0,1,1.38.27,3.53,3.53,0,0,0,.92.19,3.68,3.68,0,0,1,.76.2,3.75,3.75,0,0,0,1.08.26,2.52,2.52,0,0,1,1,.25,2.34,2.34,0,0,0,.69.2l2.8,1.12.56-3.39.92-7.41V73.13l-2.22-.55-.12,0a3.67,3.67,0,0,1-.76-.2,3.75,3.75,0,0,0-1.08-.26A1.44,1.44,0,0,1,255,72a3.5,3.5,0,0,0-1.43-.33,3.38,3.38,0,0,1-.63-.15,5.93,5.93,0,0,0-1.66-.31,2.93,2.93,0,0,1-1-.2,3.91,3.91,0,0,0-1.27-.25V62H237v9.19l-.12,0a17,17,0,0,0-4.2,1.86,8.75,8.75,0,0,0-3.35,2.4,19.73,19.73,0,0,0-2.76,3.22,9.64,9.64,0,0,0-2,3.87l-1.38,4.13a16.08,16.08,0,0,0-.48,4.75,10.64,10.64,0,0,0,.48,3.83c.13.4.23.76.32,1.1A7.67,7.67,0,0,0,224.68,99c.24.47.59,1.07.94,1.64s.68,1.14.9,1.58l.09.13a11.67,11.67,0,0,1,1.1,1.32,12.66,12.66,0,0,0,1.2,1.43,8.85,8.85,0,0,0,3.3,2.38,9,9,0,0,0,2.56,1.53l.76.35a15.66,15.66,0,0,1,2.64,1.28c.36.2.69.39,1,.56a31.45,31.45,0,0,1,3.61,1.35l.11.05H243a3.11,3.11,0,0,1,1.48.77,2.73,2.73,0,0,0,1.11.58,2,2,0,0,1,.72.34,3.23,3.23,0,0,0,1.5,1l1.25,1.25a2,2,0,0,1,.43.79c.09.23.19.5.35.83a4.57,4.57,0,0,0,.18.79,5.07,5.07,0,0,1,.27,1.38v2.3a3.12,3.12,0,0,1-.77,1.48l-1.38,1.38a5.86,5.86,0,0,1-1.71,1.28l-.13.09a2,2,0,0,1-.72.34,3.19,3.19,0,0,0-1,.45,5.28,5.28,0,0,0-.71.18,5.09,5.09,0,0,1-1.38.27h-6a5.09,5.09,0,0,1-1.38-.27,3.53,3.53,0,0,0-.92-.19,6.14,6.14,0,0,1-2.53-.87,6.9,6.9,0,0,0-1.48-.5,6,6,0,0,1-1.28-.42l-.11-.05h-.12a1.38,1.38,0,0,1-.47-.18,2,2,0,0,0-.91-.28,1.38,1.38,0,0,1-.46-.18,2.3,2.3,0,0,0-.78-.28l-3.28-1.64-.56,3.92-.92,8.32v1.74l1.86.62Z"/><path class="cls-1" d="M103.08,277.64a8,8,0,0,0,4.42-1.47l99.46-71L303.19,245a8.82,8.82,0,0,0,7.85-1l77.62-61.54c3.31-2.36,4-7.73,1.5-11.26-2.36-3.31-7.73-4-11.29-1.48l-74.19,59.08-95.75-39.86a7.84,7.84,0,0,0-7.37,1l-102.9,73.5a7.86,7.86,0,0,0-2,10.77A7.15,7.15,0,0,0,103.08,277.64Z"/><path class="cls-1" d="M485.75,435.18a7.6,7.6,0,0,0-5.69-2.45h-33.5V220.53a7.77,7.77,0,0,0-7.85-7.85H371.19a7.77,7.77,0,0,0-7.85,7.85v212.2H339.53V294a7.77,7.77,0,0,0-7.85-7.85h-68a7.77,7.77,0,0,0-7.85,7.85v138.7H232V283a7.77,7.77,0,0,0-7.85-7.85H156.65A7.77,7.77,0,0,0,148.8,283V432.73H125V326.19a7.77,7.77,0,0,0-7.85-7.85h-68a7.77,7.77,0,0,0-7.85,7.85V432.73h-34a7.85,7.85,0,1,0,0,15.7H479.61a7.75,7.75,0,0,0,7.85-7.79A6.92,6.92,0,0,0,485.75,435.18Zm-54.88-206.8V432.73H379V228.38Zm-107.5,73.5V432.73H271.54V301.88Zm-107-11V432.73H164.5V290.86ZM108.84,334v98.69H57V334Z"/></svg>