<?xml version="1.0" encoding="utf-8"?>
<!-- Generator: Adobe Illustrator 19.2.0, SVG Export Plug-In . SVG Version: 6.00 Build 0)  -->
<svg version="1.1" id="Layer_1" xmlns="http://www.w3.org/2000/svg" xmlns:xlink="http://www.w3.org/1999/xlink" x="0px" y="0px"
	 width="122px" height="124px" viewBox="0 0 122 124" style="enable-background:new 0 0 122 124;" xml:space="preserve">
<style type="text/css">
	.st0{fill:url(#SVGID_1_);}
	.st1{fill:url(#SVGID_2_);}
	.st2{fill:url(#SVGID_3_);}
	.st3{fill:#FFFFFF;}
	.st4{opacity:0.25;fill:#FFFFFF;}
	.st5{fill:url(#SVGID_4_);}
</style>
<g>
	<linearGradient id="SVGID_1_" gradientUnits="userSpaceOnUse" x1="39.3483" y1="47.7651" x2="40.6816" y2="69.7651">
		<stop  offset="0" style="stop-color:#6DD1D9"/>
		<stop  offset="1" style="stop-color:#6CAEED"/>
	</linearGradient>
	<path class="st0" d="M43.9,44.9v21.2H39V48.8h-4.2v-3.9H43.9z"/>
	<linearGradient id="SVGID_2_" gradientUnits="userSpaceOnUse" x1="55.6805" y1="46.7753" x2="57.0138" y2="68.7753">
		<stop  offset="0" style="stop-color:#6DD1D9"/>
		<stop  offset="1" style="stop-color:#6CAEED"/>
	</linearGradient>
	<path class="st1" d="M61.5,53.6c1.1,0.5,2,1.3,2.6,2.3s1,2.2,1,3.5c0,1.4-0.4,2.7-1.1,3.7c-0.7,1.1-1.7,1.9-2.9,2.5
		c-1.2,0.6-2.6,0.9-4.1,0.9c-3,0-5.3-0.9-7-2.7c-1.7-1.8-2.5-4.4-2.5-7.8c0-2.4,0.5-4.5,1.4-6.2c0.9-1.7,2.2-3,3.8-3.9
		c1.6-0.9,3.5-1.3,5.7-1.3c1.1,0,2.2,0.1,3.3,0.4c1,0.3,1.9,0.6,2.7,1.1l-1.8,3.6c-1.1-0.7-2.4-1.1-4-1.1c-1.8,0-3.2,0.5-4.3,1.6
		c-1.1,1.1-1.6,2.6-1.7,4.6c1.3-1.3,3-1.9,5.2-1.9C59.2,52.8,60.4,53.1,61.5,53.6z M59.4,62c0.7-0.6,1-1.3,1-2.3c0-1-0.3-1.7-1-2.3
		c-0.7-0.6-1.5-0.9-2.6-0.9c-1.1,0-2,0.3-2.6,0.9c-0.7,0.6-1,1.4-1,2.3c0,0.9,0.3,1.7,1,2.3c0.7,0.6,1.6,0.9,2.7,0.9
		C57.9,62.8,58.7,62.5,59.4,62z"/>
	<linearGradient id="SVGID_3_" gradientUnits="userSpaceOnUse" x1="75.4084" y1="45.5797" x2="76.7417" y2="67.5797">
		<stop  offset="0" style="stop-color:#6DD1D9"/>
		<stop  offset="1" style="stop-color:#6CAEED"/>
	</linearGradient>
	<path class="st2" d="M71.3,65.2c-1.4-0.9-2.5-2.1-3.2-3.8c-0.8-1.6-1.2-3.6-1.2-5.9s0.4-4.3,1.2-5.9c0.8-1.6,1.9-2.9,3.2-3.8
		c1.4-0.9,2.9-1.3,4.7-1.3s3.3,0.4,4.7,1.3c1.4,0.9,2.5,2.1,3.2,3.8c0.8,1.6,1.2,3.6,1.2,5.9s-0.4,4.3-1.2,5.9
		c-0.8,1.6-1.9,2.9-3.2,3.8s-2.9,1.3-4.7,1.3S72.7,66.1,71.3,65.2z M79.1,60.7c0.7-1.1,1.1-2.8,1.1-5.2s-0.4-4-1.1-5.2
		c-0.7-1.1-1.8-1.7-3-1.7c-1.3,0-2.3,0.6-3,1.7c-0.7,1.1-1.1,2.8-1.1,5.2s0.4,4,1.1,5.2s1.7,1.7,3,1.7
		C77.3,62.3,78.3,61.8,79.1,60.7z"/>
</g>
<g>
	<path class="st3" d="M43.7,73.9h-1.6v3.6h-1.3v-3.6h-1.6v-1.1h4.5V73.9z"/>
	<path class="st3" d="M48.3,74.6c0.3,0.3,0.5,0.6,0.5,1.1c0,0.5-0.2,0.9-0.5,1.2s-0.9,0.4-1.5,0.4l-2.3,0v-4.7h1.3v1.5h1.1
		C47.5,74.2,48,74.4,48.3,74.6z M47.2,76.3c0.1-0.1,0.2-0.3,0.2-0.5c0-0.2-0.1-0.4-0.2-0.5c-0.1-0.1-0.3-0.2-0.6-0.2l-0.8,0v1.4h0.8
		C46.9,76.5,47.1,76.4,47.2,76.3z M49.3,72.7h1.3v4.7h-1.3V72.7z"/>
	<path class="st3" d="M52.8,77.2c-0.4-0.2-0.7-0.5-0.9-0.9c-0.2-0.4-0.3-0.8-0.3-1.2c0-0.5,0.1-0.9,0.3-1.2c0.2-0.4,0.5-0.6,0.9-0.9
		c0.4-0.2,0.8-0.3,1.3-0.3c0.5,0,0.9,0.1,1.3,0.3c0.4,0.2,0.6,0.5,0.8,0.9l-1,0.6c-0.2-0.4-0.6-0.6-1-0.6c-0.4,0-0.6,0.1-0.9,0.3
		c-0.2,0.2-0.3,0.5-0.3,0.9s0.1,0.7,0.3,0.9c0.2,0.2,0.5,0.3,0.9,0.3c0.5,0,0.8-0.2,1-0.6l1,0.6c-0.2,0.4-0.4,0.7-0.8,0.9
		c-0.4,0.2-0.8,0.3-1.3,0.3C53.6,77.5,53.2,77.4,52.8,77.2z"/>
	<path class="st3" d="M64,75.5h-3.5c0.1,0.3,0.2,0.5,0.5,0.7c0.2,0.2,0.5,0.3,0.9,0.3c0.2,0,0.5,0,0.6-0.1c0.2-0.1,0.4-0.2,0.5-0.3
		l0.7,0.8c-0.4,0.5-1.1,0.8-1.9,0.8c-0.5,0-1-0.1-1.4-0.3s-0.7-0.5-0.9-0.9s-0.3-0.8-0.3-1.2c0-0.5,0.1-0.9,0.3-1.2s0.5-0.7,0.9-0.9
		c0.4-0.2,0.8-0.3,1.3-0.3c0.5,0,0.9,0.1,1.2,0.3c0.4,0.2,0.7,0.5,0.9,0.8c0.2,0.4,0.3,0.8,0.3,1.3C64,75.1,64,75.2,64,75.5z
		 M60.8,74c-0.2,0.2-0.3,0.4-0.4,0.7h2.3c0-0.3-0.2-0.5-0.4-0.7c-0.2-0.2-0.5-0.3-0.8-0.3C61.3,73.7,61,73.8,60.8,74z"/>
	<path class="st3" d="M69.4,76.1c0,0.4-0.2,0.7-0.5,1c-0.3,0.2-0.8,0.3-1.4,0.3H65v-4.7h2.4c0.6,0,1,0.1,1.4,0.3
		c0.3,0.2,0.5,0.5,0.5,0.9c0,0.2-0.1,0.4-0.2,0.6c-0.1,0.2-0.3,0.3-0.5,0.4C69.2,75.2,69.4,75.5,69.4,76.1z M66.3,74.7h1
		c0.5,0,0.7-0.2,0.7-0.5c0-0.3-0.2-0.5-0.7-0.5h-1V74.7z M68.2,76c0-0.2-0.1-0.3-0.2-0.4c-0.1-0.1-0.3-0.1-0.5-0.1h-1.2v1h1.1
		C67.9,76.5,68.2,76.3,68.2,76z"/>
	<path class="st3" d="M74.4,73c0.4,0.2,0.6,0.5,0.8,0.8c0.2,0.4,0.3,0.8,0.3,1.3s-0.1,0.9-0.3,1.3c-0.2,0.4-0.5,0.6-0.8,0.8
		c-0.4,0.2-0.7,0.3-1.2,0.3c-0.6,0-1.1-0.2-1.4-0.6v2.2h-1.4v-6.3h1.3v0.5c0.3-0.4,0.8-0.6,1.5-0.6C73.6,72.7,74,72.8,74.4,73z
		 M73.8,76c0.2-0.2,0.3-0.5,0.3-0.9c0-0.4-0.1-0.7-0.3-0.9c-0.2-0.2-0.5-0.4-0.9-0.4s-0.6,0.1-0.9,0.4c-0.2,0.2-0.3,0.5-0.3,0.9
		c0,0.4,0.1,0.7,0.3,0.9c0.2,0.2,0.5,0.4,0.9,0.4S73.6,76.2,73.8,76z"/>
	<path class="st3" d="M77.3,77.2c-0.4-0.2-0.7-0.5-0.9-0.9s-0.3-0.8-0.3-1.2c0-0.5,0.1-0.9,0.3-1.2c0.2-0.4,0.5-0.6,0.9-0.9
		c0.4-0.2,0.8-0.3,1.3-0.3c0.5,0,0.9,0.1,1.3,0.3c0.4,0.2,0.7,0.5,0.9,0.9c0.2,0.4,0.3,0.8,0.3,1.2c0,0.5-0.1,0.9-0.3,1.2
		c-0.2,0.4-0.5,0.6-0.9,0.9s-0.8,0.3-1.3,0.3C78.1,77.5,77.7,77.4,77.3,77.2z M79.5,76c0.2-0.2,0.3-0.5,0.3-0.9
		c0-0.4-0.1-0.7-0.3-0.9c-0.2-0.2-0.5-0.4-0.9-0.4c-0.3,0-0.6,0.1-0.9,0.4c-0.2,0.2-0.3,0.5-0.3,0.9c0,0.4,0.1,0.7,0.3,0.9
		c0.2,0.2,0.5,0.4,0.9,0.4C79,76.4,79.3,76.2,79.5,76z"/>
</g>
<path class="st4" d="M61,102.7c-22,0-39.8-17.9-39.8-39.8C21.2,40.9,39,23,61,23s39.8,17.9,39.8,39.8C100.8,84.8,83,102.7,61,102.7z
	 M61,24c-21.4,0-38.8,17.4-38.8,38.8s17.4,38.8,38.8,38.8s38.8-17.4,38.8-38.8S82.4,24,61,24z"/>
<linearGradient id="SVGID_4_" gradientUnits="userSpaceOnUse" x1="72.8607" y1="21.2647" x2="83.3607" y2="101.9313">
	<stop  offset="0" style="stop-color:#6DD1D9"/>
	<stop  offset="1" style="stop-color:#6CAEED"/>
</linearGradient>
<path class="st5" d="M61,105.2c-1.7,0-3-1.3-3-3s1.3-3,3-3c20,0,36.3-16.3,36.3-36.3c0-20-16.3-36.3-36.3-36.3c-1.7,0-3-1.3-3-3
	s1.3-3,3-3c23.3,0,42.3,19,42.3,42.3S84.3,105.2,61,105.2z"/>
<path class="st4" d="M61,123.6c-33.5,0-60.8-27.3-60.8-60.8S27.5,2.1,61,2.1s60.8,27.3,60.8,60.8S94.5,123.6,61,123.6z M61,3.1
	C28,3.1,1.2,29.9,1.2,62.9c0,33,26.8,59.8,59.8,59.8s59.8-26.8,59.8-59.8C120.8,29.9,94,3.1,61,3.1z"/>
<path class="st3" d="M61,123.6c-0.3,0-0.5-0.2-0.5-0.5s0.2-0.5,0.5-0.5c33,0,59.8-26.8,59.8-59.8c0-33-26.8-59.8-59.8-59.8
	c-0.3,0-0.5-0.2-0.5-0.5s0.2-0.5,0.5-0.5c33.5,0,60.8,27.3,60.8,60.8S94.5,123.6,61,123.6z"/>
<circle class="st3" cx="59.8" cy="2.5" r="2.2"/>
<circle class="st3" cx="113.3" cy="93" r="2.2"/>
</svg>
