<?xml version="1.0" encoding="utf-8"?>
<!-- Generator: Adobe Illustrator 19.2.0, SVG Export Plug-In . SVG Version: 6.00 Build 0)  -->
<svg version="1.1" id="Layer_1" xmlns="http://www.w3.org/2000/svg" xmlns:xlink="http://www.w3.org/1999/xlink" x="0px" y="0px"
	 width="276px" height="276px" viewBox="0 0 276 276" style="enable-background:new 0 0 276 276;" xml:space="preserve">
<style type="text/css">
	.st0{fill:#4471E1;}
	.st1{fill:#FF3D38;}
	.st2{fill:#54AEF4;}
	.st3{fill:#FFBE39;}
	.st4{fill:#31D5DB;}
</style>
<g>
	<path class="st0" d="M156.5,199.2c-6.4,2-13,3-19.8,3.1v72.5c14.3-0.1,28.4-2.3,41.9-6.5L156.5,199.2z"/>
	<path class="st1" d="M159.4,203.6l19.1,59.4c26.9-8.8,50.8-26.2,67.7-49l-50.4-36.7C186.6,189.5,173.8,198.8,159.4,203.6z"/>
	<path class="st2" d="M200.7,179l42.3,30.8c16-22.3,24.6-48.6,24.7-76.1h-52.3C215.2,150.1,210.1,165.7,200.7,179z"/>
	<path class="st3" d="M217,22.7l-36.7,50.5c18.6,13.9,29.8,35.8,30.1,59h62.4c-0.1-21.7-5.4-43.2-15.4-62.4
		C247.7,51.4,233.8,35.1,217,22.7z"/>
	<path class="st4" d="M4.3,133c0,72.4,58.7,131.3,130.9,131.7v-52.3C91.8,212,56.6,176.5,56.6,133c0-43.8,35.6-79.4,79.4-79.4
		c16.7,0,32.6,5.1,46.1,14.7l30.8-42.3C190.3,9.8,163.8,1.2,136,1.2C63.4,1.2,4.3,60.3,4.3,133z"/>
</g>
</svg>
