<?xml version="1.0" encoding="utf-8"?>
<!-- Generator: Adobe Illustrator 19.2.0, SVG Export Plug-In . SVG Version: 6.00 Build 0)  -->
<svg version="1.1" id="Layer_1" xmlns="http://www.w3.org/2000/svg" xmlns:xlink="http://www.w3.org/1999/xlink" x="0px" y="0px"
	 width="70px" height="70px" viewBox="0 0 70 70" style="enable-background:new 0 0 70 70;" xml:space="preserve">
<style type="text/css">
	.st0{fill:#223F59;}
</style>
<g>
	<path class="st0" d="M53.2,12.3c0.1,0,0.1,0,0.2,0c1.3,0,2.4,1.1,2.4,2.5c0,0.6,0.5,1.1,1.1,1.1c0.6,0,1.1-0.5,1.1-1.1
		c0-2.2-1.5-4.1-3.7-4.6V9.1c0-0.6-0.5-1.1-1.1-1.1s-1.1,0.5-1.1,1.1v1.1c-2.5,0.7-4,3.2-3.3,5.7c0.5,2,2.4,3.5,4.5,3.5
		c1.4,0,2.5,1.1,2.5,2.5c0,1.4-1.1,2.5-2.5,2.5c-1.4,0-2.5-1.1-2.5-2.5c0-0.6-0.5-1.1-1.1-1.1c-0.6,0-1.1,0.5-1.1,1.1
		c0,2.1,1.4,4,3.5,4.5v1.2c0,0.6,0.5,1.1,1.1,1.1s1.1-0.5,1.1-1.1v-1.2c2.5-0.6,4.1-3,3.6-5.6c-0.5-2.1-2.4-3.7-4.6-3.7
		c-1.4,0-2.5-1.1-2.5-2.5C50.9,13.4,51.8,12.4,53.2,12.3L53.2,12.3C53.1,12.3,53.2,12.3,53.2,12.3z"/>
	<path class="st0" d="M53.4,2.6C46.6,2.6,40.8,7,38.6,13H11.3c-0.6,0-1.1,0.6-1.1,1.2L9.9,52.8H2.1c-0.6,0-1.1,0.4-1.1,1.1v4.9
		c0,4.6,3.7,8.4,8.3,8.6v0h34v0c0.3,0,0.4,0,0.6,0h0c4.8,0,8.6-3.9,8.6-8.7V33.9c0.3,0,0.6,0,0.9,0c8.6,0,15.6-7,15.6-15.7
		S62,2.6,53.4,2.6z M9.7,65.2L9.7,65.2c-3.6,0-6.5-2.9-6.5-6.5V55h31.9v3.7c0,2.3,0.9,4.5,2.6,6.1c0.1,0.1,0.3,0.2,0.4,0.3H9.7z
		 M50.3,58.7c0,3.6-2.9,6.4-6.4,6.5h0c-3.6,0-6.5-2.9-6.5-6.5v-4.9c0-0.6-0.4-1-1-1c0,0,0,0-0.1,0H12.1l0.3-37.6H38
		c-0.2,1-0.3,2-0.3,3.1c0,2.2,0.5,4.3,1.3,6.3H28.6c-0.6,0-1.1,0.5-1.1,1.1c0,0.6,0.5,1.1,1.1,1.1h11.6c2.3,3.6,5.9,6.1,10.1,6.9
		V58.7z M53.4,31.7L53.4,31.7c-7.4,0-13.4-6-13.4-13.4c0-7.4,6-13.4,13.4-13.4c7.4,0,13.4,6,13.4,13.4c0,0,0,0,0,0
		C66.8,25.7,60.8,31.7,53.4,31.7z"/>
	<path class="st0" d="M21.6,31.9c-1.9,0-3.5,1.5-3.5,3.4c0,1.9,1.6,3.4,3.5,3.4c1.9,0,3.5-1.5,3.5-3.4
		C25.1,33.4,23.5,31.9,21.6,31.9z M21.6,36.5L21.6,36.5c-0.7,0-1.3-0.5-1.3-1.2c0-0.7,0.6-1.2,1.3-1.2c0.7,0,1.3,0.5,1.3,1.2
		C22.9,36,22.3,36.5,21.6,36.5z"/>
	<path class="st0" d="M27.5,35.3c0,0.6,0.5,1.1,1.1,1.1h14.7c0.6,0,1.1-0.5,1.1-1.1c0-0.6-0.5-1.1-1.1-1.1H28.6
		C28,34.2,27.5,34.7,27.5,35.3z"/>
	<path class="st0" d="M21.6,22.3c-1.9,0-3.5,1.5-3.5,3.4c0,1.9,1.6,3.4,3.5,3.4c1.9,0,3.5-1.5,3.5-3.4
		C25.1,23.8,23.5,22.3,21.6,22.3z M21.6,26.9c-0.7,0-1.3-0.5-1.3-1.2c0-0.7,0.6-1.2,1.3-1.2c0.7,0,1.3,0.5,1.3,1.2
		C22.9,26.4,22.3,26.9,21.6,26.9z"/>
	<path class="st0" d="M21.6,41.4c-1.9,0-3.5,1.5-3.5,3.4c0,1.9,1.6,3.4,3.5,3.4c1.9,0,3.5-1.5,3.5-3.4C25.1,43,23.5,41.4,21.6,41.4z
		 M21.6,46.1c-0.7,0-1.3-0.5-1.3-1.2c0-0.7,0.6-1.2,1.3-1.2c0.7,0,1.3,0.5,1.3,1.2C22.9,45.5,22.3,46.1,21.6,46.1z"/>
	<path class="st0" d="M43.3,43.8H28.6c-0.6,0-1.1,0.5-1.1,1.1S28,46,28.6,46h14.7c0.6,0,1.1-0.5,1.1-1.1S43.9,43.8,43.3,43.8z"/>
</g>
</svg>
