<?xml version="1.0" encoding="utf-8"?>
<!-- Generator: Adobe Illustrator 19.2.0, SVG Export Plug-In . SVG Version: 6.00 Build 0)  -->
<svg version="1.1" id="Layer_1" xmlns="http://www.w3.org/2000/svg" xmlns:xlink="http://www.w3.org/1999/xlink" x="0px" y="0px"
	 width="70px" height="70px" viewBox="0 0 70 70" style="enable-background:new 0 0 70 70;" xml:space="preserve">
<style type="text/css">
	.st0{fill:#223F59;}
</style>
<g>
	<path class="st0" d="M35.4,38.1c-1.3-0.1-2.2-1.2-2.2-2.5c0-0.6-0.5-1.1-1.1-1.1c-0.6,0-1.1,0.5-1.1,1.1c0,2.1,1.4,4,3.5,4.6v1.1
		c0,0.6,0.5,1.1,1.1,1.1s1.1-0.5,1.1-1.1v-1c2.6-0.5,4.2-3.1,3.7-5.6c-0.5-2.2-2.4-3.8-4.7-3.8c-1.4,0-2.5-1.1-2.5-2.5
		c0-1.4,1.1-2.5,2.5-2.5c1.4,0,2.5,1.1,2.5,2.5c0,0.6,0.5,1.1,1.1,1.1s1.1-0.5,1.1-1.1c0-2.3-1.6-4.2-3.8-4.7v-1
		c0-0.6-0.5-1.1-1.1-1.1c-0.6,0-1.1,0.5-1.1,1.1v1.1c-2.5,0.7-4,3.3-3.3,5.9c0.6,2.1,2.4,3.5,4.6,3.5c1.4,0,2.5,1.2,2.5,2.6
		c0,1.3-1.1,2.4-2.4,2.5l0,0C35.7,38.1,35.5,38.1,35.4,38.1z"/>
	<path class="st0" d="M35.7,48.2c8.9,0,16.2-7.2,16.2-16.2c0-8.9-7.2-16.2-16.2-16.2c0,0,0,0,0,0c-8.9,0-16.2,7.2-16.2,16.2
		C19.5,41,26.8,48.2,35.7,48.2z M35.7,18.1L35.7,18.1c7.7,0,13.9,6.2,13.9,13.9c0,7.7-6.2,13.9-13.9,13.9S21.7,39.7,21.7,32
		C21.7,24.3,28,18.1,35.7,18.1z"/>
	<path class="st0" d="M64.8,53.2c-1.5-2.6-4.8-3.6-7.4-2.3l-8.7,4.1c-1.2-2.2-3.5-3.7-6.1-3.7l-8.1-0.2c-1.3,0-2.5-0.4-3.7-0.9
		L30,49.7c-4.2-2.2-9.2-2.2-13.4,0l0.1-1.9c0-0.6-0.5-1.1-1.1-1.1l-8.8-0.2c-0.6,0-1.1,0.5-1.1,1.1L5,67c0,0.6,0.5,1.1,1.1,1.1
		l8.8,0.2h0c0.6,0,1.1-0.5,1.1-1.1l0-0.9l2.3-1.2c0.9-0.5,2-0.6,2.9-0.3l13.7,3.8l0.1,0c1,0.2,2,0.3,3,0.3c2.1,0,4.3-0.5,6.2-1.4
		c0,0,0.1,0,0.1-0.1l19.9-12.9C64.9,54.4,65.1,53.7,64.8,53.2z M13.9,66.1l-6.6-0.2l0.5-17.2l6.6,0.2L13.9,66.1z M43.4,65.6
		c-2.4,1.1-5.1,1.4-7.7,0.9L22,62.7c-1.5-0.4-3.2-0.3-4.6,0.5l-1.2,0.6l0.3-11.4c3.7-2.5,8.5-2.7,12.5-0.7l0.8,0.4
		c1.4,0.7,3,1.1,4.6,1.2l8.1,0.2c2.3,0.1,4.2,1.7,4.6,3.9l-12-0.3c-0.6,0-1.1,0.5-1.1,1.1c0,0.6,0.5,1.1,1.1,1.1l13.3,0.4h0
		c0.6,0,1.1-0.5,1.1-1.1c0-0.5,0-1-0.1-1.4l9-4.2l0,0c1.3-0.6,2.8-0.4,3.9,0.5L43.4,65.6z"/>
	<path class="st0" d="M35.7,13.8c0.6,0,1.1-0.5,1.1-1.1V2.1c0-0.6-0.5-1.1-1.1-1.1s-1.1,0.5-1.1,1.1v10.6
		C34.6,13.3,35.1,13.8,35.7,13.8z"/>
	<path class="st0" d="M44.1,13.8c0.6,0,1.1-0.5,1.1-1.1v-5c0-0.6-0.5-1.1-1.1-1.1s-1.1,0.5-1.1,1.1v5C42.9,13.3,43.4,13.8,44.1,13.8
		z"/>
	<path class="st0" d="M27.3,13.8c0.6,0,1.1-0.5,1.1-1.1v-5c0-0.6-0.5-1.1-1.1-1.1c-0.6,0-1.1,0.5-1.1,1.1v5
		C26.2,13.3,26.7,13.8,27.3,13.8z"/>
</g>
</svg>
