<?xml version="1.0" encoding="utf-8"?>
<!-- Generator: Adobe Illustrator 19.2.0, SVG Export Plug-In . SVG Version: 6.00 Build 0)  -->
<svg version="1.1" id="Layer_1" xmlns="http://www.w3.org/2000/svg" xmlns:xlink="http://www.w3.org/1999/xlink" x="0px" y="0px"
	 width="40px" height="60px" viewBox="0 0 40 60" style="enable-background:new 0 0 40 60;" xml:space="preserve">
<style type="text/css">
	.st0{fill:#31D5DB;}
</style>
<g>
	<path class="st0" d="M38.8,25.1L22.4,0.4c-0.1-0.1-0.2-0.2-0.3-0.3c-0.4-0.3-1.1-0.2-1.3,0.3L4.4,25.1c-0.1,0.2-0.2,0.4-0.2,0.5
		c0,0.5,0.4,1,1,1h9v4.9c0,0.5,0.4,1,1,1s1-0.4,1-1v-5.9c0-0.5-0.4-1-1-1h-0.1H7l14.6-22l14.6,22H28c-0.5,0-1,0.4-1,1V59
		c0,0.5,0.4,1,1,1s1-0.4,1-1V26.6h9l0,0c0.2,0,0.4-0.1,0.5-0.2C39,26.2,39.2,25.6,38.8,25.1z"/>
	<path class="st0" d="M19.6,36.3c-0.4-0.4-1.1-0.3-1.4,0.2L1.5,57.8c-0.2,0.2-0.2,0.4-0.2,0.6c0,0.5,0.4,1,1,1
		c0.3,0,0.6-0.2,0.8-0.4l16.8-21.4C20.2,37.3,20.1,36.7,19.6,36.3z"/>
	<path class="st0" d="M15.1,49.5c-2.7,0-5,2.2-5,5c0,2.7,2.2,5,5,5c2.7,0,5-2.2,5-5C20.2,51.8,18,49.5,15.1,49.5z M15.1,57.6
		c-1.7,0-3.1-1.3-3.1-3.1c0-1.7,1.3-3.1,3.1-3.1l0,0c1.7,0,3.1,1.3,3.1,3.1C18.2,56.2,16.8,57.6,15.1,57.6z"/>
	<path class="st0" d="M6.1,46c2.7,0,5-2.2,5-5c0-2.7-2.2-5-5-5c-2.7,0-5,2.2-5,5C1,43.7,3.2,46,6.1,46z M6.1,37.8L6.1,37.8
		c1.7,0,3.1,1.3,3.1,3.1c0,1.7-1.3,3.1-3.1,3.1C4.4,44,3,42.7,3,40.9C3,39.3,4.4,37.8,6.1,37.8z"/>
</g>
</svg>
