<?xml version="1.0" encoding="utf-8"?>
<!-- Generator: Adobe Illustrator 19.2.0, SVG Export Plug-In . SVG Version: 6.00 Build 0)  -->
<svg version="1.1" id="Layer_1" xmlns="http://www.w3.org/2000/svg" xmlns:xlink="http://www.w3.org/1999/xlink" x="0px" y="0px"
	 width="40px" height="60px" viewBox="0 0 40 60" style="enable-background:new 0 0 40 60;" xml:space="preserve">
<style type="text/css">
	.st0{fill:#31D5DB;}
</style>
<g>
	<path class="st0" d="M19.9,20.2L19.9,20.2c5.3,0,9.5-4.2,9.5-9.4c0-2.5-1-4.9-2.7-6.6c-1.8-1.8-4.2-2.7-6.7-2.7s-4.9,1-6.6,2.8
		c-1.8,1.8-2.7,4.2-2.7,6.7C10.6,16,14.8,20.2,19.9,20.2z M12.7,10.8c0-3.9,3.2-7.2,7.2-7.2s7.2,3.2,7.2,7.2c0,1.9-0.8,3.7-2.1,5.1
		c-2.8,2.8-7.4,2.8-10.2-0.1C13.5,14.5,12.7,12.7,12.7,10.8L12.7,10.8z"/>
	<path class="st0" d="M17.2,15.3c0.2,0,0.3,0,0.5,0h0.1c0.1,0.1,0.3,0.1,0.5,0.1c0.1,0,0.2,0.1,0.3,0.1s0.2,0,0.2,0.1
		c0.2,0.1,0.4,0.1,0.5,0.1h0.1V17H21v-1.3l0,0c0.2-0.1,0.4-0.1,0.6-0.3c0.1-0.1,0.3-0.1,0.4-0.2c0,0,0.1-0.1,0.2-0.1l0,0
		c0.1-0.1,0.3-0.3,0.4-0.4c0.1-0.1,0.1-0.2,0.2-0.3c0-0.1,0.1-0.1,0.1-0.2l0.2-0.6c0.1-0.2,0.1-0.4,0.1-0.7c0-0.2,0-0.4-0.1-0.5
		c0-0.1,0-0.1,0-0.2s-0.1-0.3-0.2-0.4v-0.1c-0.1-0.1-0.1-0.3-0.2-0.4c-0.1-0.1-0.1-0.1-0.2-0.2c-0.1-0.1-0.1-0.1-0.2-0.2
		c-0.1-0.1-0.3-0.3-0.5-0.3c-0.1-0.1-0.2-0.2-0.4-0.2h-0.1c-0.1,0-0.2-0.1-0.2-0.1c-0.1-0.1-0.2-0.1-0.3-0.1
		c-0.2-0.1-0.3-0.1-0.5-0.2l0,0l0,0c-0.1,0-0.1-0.1-0.2-0.1c0,0-0.1-0.1-0.2-0.1h-0.1c0,0-0.1-0.1-0.2-0.1h-0.1l-0.2-0.2
		c-0.1,0-0.1-0.1-0.1-0.2l0,0l0,0V9.1V8.8V8.7V8.6c0,0,0-0.1,0.1-0.1V8.4l0.2-0.2c0.1-0.1,0.2-0.1,0.3-0.1l0,0l0,0
		C19.9,8.1,20,8,20.1,8h0.4c0.1,0,0.2,0,0.3,0.1l0,0l0,0c0.1,0,0.1,0,0.2,0h0.1h0.1c0,0,0.1,0,0.2,0h0.1h0.1L22,8.3l0.1-0.5l0.1-1
		V6.5l-0.3-0.1l0,0h-0.1c0,0-0.1,0-0.2,0c0,0,0,0-0.1,0s-0.1,0-0.2,0h-0.1c-0.1,0-0.2,0-0.2,0h-0.1c-0.1,0-0.1,0-0.2,0V4.7H19V6l0,0
		c-0.2,0.1-0.4,0.1-0.6,0.3c-0.2,0.1-0.3,0.2-0.5,0.3c-0.1,0.1-0.3,0.3-0.4,0.4c-0.1,0.2-0.2,0.3-0.3,0.5L17,8.1
		c-0.1,0.2-0.1,0.4-0.1,0.7c0,0.2,0,0.4,0.1,0.5c0,0.1,0,0.1,0,0.2c0,0.1,0.1,0.3,0.2,0.4c0,0.1,0.1,0.1,0.1,0.2s0.1,0.2,0.1,0.2
		l0,0c0.1,0.1,0.1,0.1,0.2,0.2c0.1,0.1,0.1,0.1,0.2,0.2c0.1,0.1,0.3,0.3,0.5,0.3c0.1,0.1,0.2,0.2,0.4,0.2h0.1c0.1,0,0.3,0.1,0.4,0.2
		c0.1,0,0.1,0.1,0.1,0.1c0.2,0.1,0.3,0.1,0.5,0.2l0,0l0,0c0.1,0,0.1,0.1,0.2,0.1c0,0,0.1,0.1,0.2,0.1h0.1c0.1,0.1,0.1,0.1,0.2,0.1
		l0.2,0.2c0,0,0,0.1,0.1,0.1v0.1v0.1c0,0.1,0,0.1,0,0.2V13c0,0.1-0.1,0.1-0.1,0.2l-0.2,0.2c-0.1,0.1-0.1,0.1-0.2,0.2l0,0h-0.1
		c0,0-0.1,0-0.1,0.1H20c-0.1,0-0.1,0-0.2,0H19c-0.1,0-0.1,0-0.2,0h-0.1c-0.1,0-0.2-0.1-0.4-0.1c-0.1,0-0.1-0.1-0.2-0.1
		c-0.1,0-0.1,0-0.2-0.1l0,0l0,0c0,0,0,0-0.1,0h-0.1c0,0,0,0-0.1,0h-0.1L17,13.2l0,0.6L16.9,15v0.2L17.2,15.3L17.2,15.3z"/>
	<path class="st0" d="M1.4,34.8c0.2,0,0.4-0.1,0.6-0.2l12.9-9.9l7.4,5.5c0.4,0.1,0.8,0.1,1.1-0.1l16.2-14.6c0.5-0.3,0.6-1.1,0.2-1.6
		c-0.3-0.5-1.1-0.6-1.6-0.2L22.7,27.8l-7.5-5.4c-0.3-0.1-0.7-0.1-1,0.1L0.8,32.8c-0.5,0.3-0.6,1-0.3,1.5C0.7,34.6,1.1,34.8,1.4,34.8
		z"/>
	<path class="st0" d="M39.8,56.7c-0.2-0.2-0.5-0.3-0.8-0.3h-0.2V26.8c0-0.6-0.5-1.1-1.1-1.1l0,0h-5.4c-0.6,0-1.1,0.5-1.1,1.1l0,0
		v29.6h-2.3V37c0-0.6-0.5-1.1-1.1-1.1l0,0h-5.5c-0.6,0-1.1,0.5-1.1,1.1l0,0v19.3h-2.3V35.5c0-0.6-0.5-1.1-1.1-1.1l0,0h-5.4
		c-0.6,0-1.1,0.5-1.1,1.1l0,0v20.9H9V41.5c0-0.6-0.5-1.1-1.1-1.1l0,0H2.4c-0.6,0-1.1,0.5-1.1,1.1l0,0v14.8H1.1
		c-0.6,0-1.1,0.5-1.1,1.1s0.5,1.1,1.1,1.1h37.8c0.6,0,1.1-0.5,1.1-1.1l0,0C40,57.2,39.9,56.9,39.8,56.7z M6.7,56.4H3.5V42.6h3.2
		V56.4z M16.7,56.4h-3.2V36.6h3.2V56.4z M26.6,56.4h-3.2V38.1h3.2V56.4z M36.6,56.4h-3.2V27.9h3.2V56.4z"/>
</g>
</svg>
