<?xml version="1.0" encoding="utf-8"?>
<!-- Generator: Adobe Illustrator 19.2.0, SVG Export Plug-In . SVG Version: 6.00 Build 0)  -->
<svg version="1.1" id="Layer_1" xmlns="http://www.w3.org/2000/svg" xmlns:xlink="http://www.w3.org/1999/xlink" x="0px" y="0px"
	 width="40px" height="60px" viewBox="0 0 40 60" style="enable-background:new 0 0 40 60;" xml:space="preserve">
<style type="text/css">
	.st0{fill:#31D5DB;}
</style>
<g>
	<path class="st0" d="M13.7,34.1c1.5,0,2.3-1.2,2.3-2.6V7.1c0-1.5-0.8-2.6-2.3-2.6s-2.3,1.2-2.3,2.6v24.3
		C11.4,32.9,12.2,34.1,13.7,34.1z"/>
	<path class="st0" d="M20.1,34.1c1.5,0,2.3-1.2,2.3-2.6V2.6c0-1.5-0.8-2.6-2.3-2.6c-1.5,0-2.3,1.2-2.3,2.6v28.8
		C17.9,32.9,18.7,34.1,20.1,34.1z"/>
	<path class="st0" d="M26.7,34.1c1.5,0,2.3-1.2,2.3-2.6V5.6c0-1.5-0.8-2.6-2.3-2.6c-1.5,0-2.3,1.2-2.3,2.6v25.9
		C24.4,32.9,25.2,34.1,26.7,34.1z"/>
	<path class="st0" d="M33.1,12.3c-1.5,0-2.3,1.2-2.3,2.6v16.5c0,1.5,0.8,2.6,2.3,2.6c1.5,0,2.3-1.2,2.3-2.6V14.9
		C35.4,13.5,34.6,12.3,33.1,12.3z"/>
	<path class="st0" d="M33.3,35.2c-1.5,0-2.3,1.2-2.3,2.6l-0.2,7.9c0,5.6-4.8,10.1-10.3,10.1S9.5,51.4,9.5,45.7c0-1.5-0.3-3.9-2-4
		C6,41.6,5,43,5,44.4C5,53,12,60,20.6,60s14.8-7,14.8-15.5v-6.5C35.4,36.4,34.8,35.2,33.3,35.2z"/>
	<path class="st0" d="M13.3,42.1c1.1,1.6,2.1,3.4,2.1,6.1c0,1.5,0.2,2.6,1.7,2.6s2.1-1.2,2.1-2.7c0-4.2-1.3-7.1-3.8-9.5
		c-2.2-2.1-4.9-2.7-7-3.1V22.7c0-1.5-0.6-2.6-2.1-2.6c-1.5,0-1.7,1.2-1.7,2.6V37C4.5,39.8,10.7,38.5,13.3,42.1z"/>
</g>
</svg>
