<?xml version="1.0" encoding="utf-8"?>
<!-- Generator: Adobe Illustrator 19.2.0, SVG Export Plug-In . SVG Version: 6.00 Build 0)  -->
<svg version="1.1" id="Layer_1" xmlns="http://www.w3.org/2000/svg" xmlns:xlink="http://www.w3.org/1999/xlink" x="0px" y="0px"
	 width="36px" height="36px" viewBox="0 0 36 36" style="enable-background:new 0 0 36 36;" xml:space="preserve">
<style type="text/css">
	.st0{fill:#48DADF;}
</style>
<path class="st0" d="M18,0C8.1,0,0,8.1,0,18c0,9.9,8.1,18,18,18c9.9,0,18-8.1,18-18C36,8.1,27.9,0,18,0 M13.2,26.9H8.9V13.9h4.3
	V26.9z M11.1,12.2L11.1,12.2c-1.5,0-2.4-1-2.4-2.2c0-1.3,1-2.2,2.4-2.2c1.5,0,2.4,1,2.4,2.2C13.5,11.2,12.6,12.2,11.1,12.2
	 M28.8,26.9h-4.3v-6.9c0-1.7-0.6-2.9-2.2-2.9c-1.2,0-1.9,0.8-2.2,1.6c-0.1,0.3-0.1,0.7-0.1,1v7.2h-4.3c0,0,0.1-11.7,0-12.9h4.3v1.8
	c0.6-0.9,1.6-2.1,3.9-2.1c2.8,0,5,1.8,5,5.8V26.9z"/>
</svg>
