<?xml version="1.0" encoding="utf-8"?>
<!-- Generator: Adobe Illustrator 21.1.0, SVG Export Plug-In . SVG Version: 6.00 Build 0)  -->
<svg version="1.1" id="Layer_1" xmlns="http://www.w3.org/2000/svg" xmlns:xlink="http://www.w3.org/1999/xlink" x="0px" y="0px"
	 viewBox="0 0 107.9 210" style="enable-background:new 0 0 107.9 210;" xml:space="preserve">
<style type="text/css">
	.st0{fill-rule:evenodd;clip-rule:evenodd;fill:#FFFFFF;}
</style>
<g>
	<path class="st0" d="M31.9,119.4c-5.2,0-7.9-4.2-7.9-9.4V25c0-5.2,2.7-9.4,7.9-9.4s7.9,4.2,7.9,9.4v85
		C39.8,115.2,37.1,119.4,31.9,119.4L31.9,119.4z"/>
	<path class="st0" d="M54.6,0c5.2,0,7.9,4.2,7.9,9.4V110c0,5.2-2.7,9.4-7.9,9.4c-5.2,0-7.9-4.2-7.9-9.4V9.4C46.7,4.2,49.4,0,54.6,0"
		/>
	<path class="st0" d="M77.3,119.4c-5.2,0-7.9-4.2-7.9-9.4V19.4c0-5.2,2.7-9.4,7.9-9.4c5.2,0,7.9,4.2,7.9,9.4V110
		C85.2,115.2,82.5,119.4,77.3,119.4"/>
	<path class="st0" d="M99.9,119.4c-5.2,0-7.9-4.2-7.9-9.4V52.3c0-5.2,2.7-9.4,7.9-9.4c5.2,0,7.9,4.2,7.9,9.4V110
		C107.8,115.2,105.1,119.4,99.9,119.4"/>
	<path class="st0" d="M43.6,178c-5.2,0-5.9-4.2-5.9-9.4c0-9.4-3.5-15.7-7.4-21.3c-8.8-12.5-30.4-8-30.4-17.9v-50
		c0-5.2,0.7-9.4,5.9-9.4c5.2,0,7.3,4.2,7.3,9.4v44.9c7,1.1,16.6,3.3,24.4,10.7c8.9,8.4,13.4,18.7,13.4,33.5
		C50.9,173.8,48.8,178,43.6,178"/>
	<path class="st0" d="M55.9,210C26,210,1.6,185.7,1.6,155.8c0-5.2,3.5-9.6,8.7-9.4c6.1,0.2,7.1,8.6,7.1,13.8
		c0,19.6,18.9,35.5,38.4,35.5s36.2-15.9,36.2-35.5l0.7-27.5c0-5.2,2.7-9.4,7.9-9.4s7.2,4.2,7.2,9.4v23.1
		C107.9,185.7,85.8,210,55.9,210"/>
	<path class="st0" d="M43.6,178c-5.2,0-5.9-4.2-5.9-9.4c0-9.4-3.5-15.7-7.4-21.3c-8.8-12.5-30.4-8-30.4-17.9v-50
		c0-5.2,0.7-9.4,5.9-9.4c5.2,0,7.3,4.2,7.3,9.4v44.9c7,1.1,16.6,3.3,24.4,10.7c8.9,8.4,13.4,18.7,13.4,33.5
		C50.9,173.8,48.8,178,43.6,178"/>
</g>
</svg>
