<?xml version="1.0" encoding="utf-8"?>
<!-- Generator: Adobe Illustrator 19.2.0, SVG Export Plug-In . SVG Version: 6.00 Build 0)  -->
<svg version="1.1" id="Layer_1" xmlns="http://www.w3.org/2000/svg" xmlns:xlink="http://www.w3.org/1999/xlink" x="0px" y="0px"
	 width="170px" height="64px" viewBox="0 0 170 64" style="enable-background:new 0 0 170 64;" xml:space="preserve">
<style type="text/css">
	.st0{fill:#FFFFFF;}
</style>
<path class="st0" d="M2,9.9c2.9,3.1,5.4,6.3,7.9,9.6c3.5,4.4,6.7,9.1,10.6,13.2c2.1,2.2,4.6,4,7.7,4.7c2.4,0.6,4.6,0.1,6.6-1.4
	c3.2-2.2,5.6-5.1,8-8.1c3.3-4.2,6.4-8.5,10-12.5c3.5-3.9,7.4-7.4,11.9-10.2c1.2-0.7,1.2,0.3,1.5,0.8c0.6,0.7-0.2,0.7-0.5,0.9
	c-4.4,2.6-8.2,6-11.6,9.8c-4.1,4.6-7.6,9.7-11.4,14.5c-2.1,2.7-4.5,5.3-7.3,7.3c-3,2.2-6,2-9.2,0.5c-3.9-2-6.6-5.2-9.3-8.5
	c-4.4-5.3-8.5-10.9-13.3-15.8c-0.7-0.7-1.4-1.5-2.2-2.1c-0.6-0.5-0.7-1-0.3-1.6C1.5,10.8,1.7,10.4,2,9.9z"/>
<path class="st0" d="M0,15.4c3.4,2.5,6.2,5.2,8.7,8.1c2.7,3.1,5.3,6.2,8,9.4c2.4,2.9,4.8,5.8,7.9,7.9c1.9,1.4,4,2.4,6.4,2.6
	c2.8,0.2,4.8-1.3,6.7-2.9c3.2-2.7,5.6-6,8-9.3c3.1-4.2,6.1-8.6,9.6-12.6c3.4-3.7,6.9-7.1,11.3-9.6C67,8.9,67.4,8.4,67.6,9
	c0.1,0.4,0.8,1,0,1.5c-7.2,4.3-12.4,10.6-17.2,17.3C47,32.4,44,37.3,40,41.4c-1.7,1.7-3.4,3.4-5.7,4.2c-2.8,1-5.3,0-7.7-1.4
	c-3.9-2.4-6.8-5.8-9.6-9.2c-3.1-3.7-6.2-7.3-9.5-10.7c-2-2-4.1-3.8-6.4-5.3c-0.8-0.5-1-1.1-0.9-1.9C0.1,16.6,0,16.1,0,15.4z"/>
<path class="st0" d="M29.1,34.7c-2.6-0.3-5-1.3-7.2-3.1c-2.6-2.2-4.6-4.9-6.6-7.6c-1.6-2.2-3.3-4.4-4.8-6.6S7.4,13,5.7,10.9
	c-0.5-0.6-1-1.3-1.5-2C3.8,8.4,3.8,8,4.5,7.9c0.7-0.2,1.3-0.2,1.9,0.6c2.6,4.1,5.3,8.1,8.1,12.1c2.3,3.3,4.7,6.6,7.9,9.2
	c1.8,1.4,3.8,2.1,6,2.2c1.9,0.1,3.7-0.6,5.2-1.8c3.4-2.6,6.3-5.7,8.9-9.1c1.7-2.2,3.6-4.3,5.4-6.5c2.1-2.5,4.4-4.9,6.9-7.1
	c2.1-1.9,4.2-3.6,6.5-5.2c0.6-0.4,2,0,2.3,0.7c0.2,0.4-0.3,0.4-0.4,0.5c-1.8,1.3-3.6,2.6-5.4,4c-2.6,2.1-4.9,4.5-7.1,6.9
	c-3.5,3.9-6.6,8.2-10,12.2c-2,2.4-4.2,4.6-6.7,6.5C32.7,34.1,31.1,34.6,29.1,34.7z"/>
<path class="st0" d="M68.2,12.5c0.4,1.4-0.4,2.1-1.4,2.9c-5,3.6-8.9,8.2-12.6,13.1c-3.5,4.6-6.4,9.6-9.8,14.3
	c-1.8,2.4-3.7,4.7-5.9,6.7c-3.4,2.9-6.8,3.2-10.7,0.7c-3.7-2.3-6.5-5.5-9.3-8.7c-3.8-4.4-7.6-8.9-12-12.7c-1.1-1-2.3-1.9-3.6-2.6
	C2,25.6,1.4,25,1.2,23.9c-0.1-0.5-0.3-1.1-0.6-1.8c1.9,1,3.5,2.2,5,3.5c4.1,3.5,7.7,7.6,11.2,11.7c2.5,3,5,6.1,8.2,8.5
	c1.1,0.9,2.3,1.7,3.6,2.3c3.7,1.8,6.7,1.3,9.8-1.5c3.3-2.8,5.8-6.3,8.3-9.9c3.6-5.2,7-10.5,11.2-15.3C60.9,18.1,64.2,15,68.2,12.5z"
	/>
<path class="st0" d="M3.6,29.9c2.8,1.4,4.9,3.6,7.1,5.7c3.9,4,7.4,8.3,11.1,12.4c2.2,2.4,4.6,4.6,7.6,6c3.6,1.7,6.6,0.9,9.5-1.6
	c3.3-2.9,5.7-6.5,8-10.1c3.4-5.2,6.6-10.5,10.6-15.4c2.9-3.6,6-7,9.7-9.8c0.1-0.1,0.3-0.2,0.6-0.4c-0.3,1.3-0.6,2.3-1.6,3.2
	c-4.3,3.7-7.9,8.1-11.2,12.7c-3.7,5.2-6.9,10.8-10.6,16.1c-1.8,2.7-3.9,5.2-6.5,7.3c-2.9,2.3-5.9,2.2-9,0.6
	c-3.5-1.8-6.1-4.7-8.7-7.6c-4.2-4.8-8.2-9.9-13-14.2c-0.5-0.4-0.9-0.9-1.5-1.2C4.4,32.8,4.2,31.3,3.6,29.9z"/>
<path class="st0" d="M6.7,37.4c3.2,2.8,5.6,5.8,8.2,8.7c2.8,3.3,5.5,6.7,8.6,9.8c2.1,2.2,4.5,4,7.6,4.8c2.2,0.6,4.2,0.2,6.1-1.1
	c3-2.1,5.2-5,7.2-8c3.7-5.6,7.1-11.4,11-16.9c2.9-4.1,6.1-8.2,9.7-11.8c0.2-0.2,0.3-0.3,0.6-0.4c-0.4,1-0.6,2.1-1.3,2.9
	C57.7,32.7,52.5,41,47.4,49.3c-2.5,4-4.9,8.1-8.3,11.5c-1.4,1.3-2.7,2.6-4.7,3C32,64.2,30,63.6,28,62.5c-1.9-1.1-3.5-2.5-5-4.1
	c-4.9-5.2-9.2-11-14.1-16.3C7.8,40.9,7.5,39.2,6.7,37.4z"/>
<path class="st0" d="M59.6,0.7C58,2,56.5,3.2,55,4.4c-3.4,2.9-6.5,6.2-9.4,9.6c-3.3,3.8-6.4,7.9-10.1,11.4c-1.8,1.7-3.8,3.2-6.3,3.7
	c-3.3,0.6-5.9-0.7-8.2-2.9c-3.2-3.2-5.7-6.9-8.1-10.7c-1.4-2.1-2.7-4.1-4-6.2C8.8,9,8.3,8.7,8.7,8.4C9,8.2,9.1,8.7,9.3,8.8
	c2.9,1.6,3.9,4.6,5.6,7.1c2,2.7,3.8,5.5,6.2,7.9c2.2,2.2,4.8,3.5,8,2.5c2.2-0.6,4-2,5.6-3.6c3.6-3.5,6.7-7.4,10-11.1
	c3.5-4,7.4-7.7,11.5-11.1c0.4-0.4,0.8-0.5,1.4-0.4c0.2,0,0.4,0,0.6,0.1C58.6,0.3,59,0.5,59.6,0.7z"/>
<path class="st0" d="M52.6,0.1c-1.1,1.2-2.2,2.5-3.4,3.8c-3.9,3.9-7.5,8-11.1,12.1c-1.9,2.1-3.7,4.1-6,5.8
	c-4.3,3.2-7.5,2.9-11.2-0.9c-1.5-1.6-2.8-3.4-4.1-5.1c-0.2-0.3-0.3-0.5-0.2-0.8c1.5,0.2,2.4,1.2,3.5,2.1c1.3,1.1,2.7,1.9,4.4,2.5
	c3.6,1.2,6.6,0.3,9.3-2.2c3.3-3.1,6.2-6.4,9.2-9.8c1.5-1.6,3-3.2,4.4-4.9c1-1.2,2.2-1.9,3.7-2.2C51.6,0.4,52.2,0.2,52.6,0.1z"/>
<path class="st0" d="M159.2,43.9c-0.8,1-1.6,1.9-2.3,2.9c-0.5,0.6-0.7,0.8-1.3,0c-0.7-1.1-1.6-2-2.4-3c-0.3,0.2-0.2,0.4-0.2,0.7
	c0,2.1,0,4.1,0,6.2c0,0.7-0.2,0.7-0.8,0.8c-0.7,0-0.7-0.3-0.7-0.8c0-2.8,0-5.6,0-8.4c0-0.3-0.3-0.8,0.3-0.9c0.5-0.1,1-0.2,1.4,0.4
	c0.8,1,1.6,2,2.4,3c0.5,0.7,0.8,0.6,1.3,0c0.7-1,1.5-1.9,2.2-2.9c0.4-0.6,1-0.6,1.5-0.5c0.5,0.1,0.3,0.7,0.3,1c0,2.7,0,5.5,0,8.2
	c0,0.5,0,0.8-0.7,0.9c-0.8,0-0.8-0.4-0.8-0.9c0-2.1,0-4.1,0-6.2C159.5,44.2,159.5,44,159.2,43.9z"/>
<path class="st0" d="M134.4,14.3c-0.8,1-1.6,2-2.3,3c-0.4,0.6-0.7,0.7-1.2,0c-0.8-1.1-1.6-2-2.6-3.3c0,2.1,0,4,0,5.8
	c0,0.4,0,0.8,0,1.2c0.1,0.6-0.1,0.8-0.8,0.8c-0.6,0-0.7-0.3-0.7-0.8c0-2.8,0-5.6,0-8.4c0-0.3-0.3-0.8,0.3-0.9c0.5-0.1,1-0.2,1.4,0.4
	c0.8,1.1,1.7,2.2,2.6,3.3c0.1,0.1,0.2,0.2,0.4,0.4c1-1.2,1.9-2.4,2.9-3.6c0.2-0.3,0.4-0.5,0.9-0.5c0.6,0,0.9,0.1,0.9,0.8
	c0,2.8,0,5.7,0,8.5c0,0.6-0.2,0.8-0.8,0.8c-0.6,0-0.7-0.3-0.7-0.8c0-2.2,0-4.5,0-6.7C134.5,14.4,134.5,14.4,134.4,14.3z"/>
<path class="st0" d="M132.8,46.1c1,0.4,1.9,0.9,2.1,2.1c0.3,1.7-0.7,2.9-2.6,3.2c-1.2,0.1-2.5,0-3.7,0.1c-0.4,0-0.5-0.2-0.5-0.6
	c0-3,0-6,0-9c0-0.3,0-0.6,0.5-0.6c1,0,2-0.1,3,0.1c1.1,0.1,2,0.6,2.3,1.8C134.3,44.3,134.1,45,132.8,46.1z M129.6,48.5
	c0,1.8,0,1.8,1.8,1.6c0.3,0,0.6,0,0.9-0.1c0.7-0.2,1.1-0.6,1.2-1.3c0.1-0.7-0.3-1.2-1-1.5c-0.4-0.2-0.9-0.2-1.4-0.2
	C129.6,46.9,129.6,46.9,129.6,48.5z M129.6,44.1c0,1.6,0,1.6,0.7,1.6c1.5,0,2.3-0.5,2.3-1.6c0-1-0.6-1.4-2.2-1.4
	C128.9,42.6,129.9,43.7,129.6,44.1z"/>
<path class="st0" d="M106.9,46.4c0,2.9-2.3,5.2-5.3,5.2c-3.1,0-5.4-2.2-5.4-5.2c0-2.9,2.3-5.1,5.4-5.1
	C104.7,41.2,106.9,43.4,106.9,46.4z M101.5,50.2c2.2,0,3.9-1.6,3.9-3.8c0-2.2-1.7-3.9-3.9-3.9c-2.2,0-3.8,1.6-3.8,3.8
	C97.7,48.5,99.3,50.2,101.5,50.2z"/>
<path class="st0" d="M120.9,41.2c3.1-0.1,5.4,2,5.5,5c0.1,2.9-2.2,5.2-5.2,5.3c-3,0.1-5.4-2-5.5-4.9
	C115.6,43.6,117.7,41.4,120.9,41.2z M124.9,46.4c0-2.2-1.6-3.8-3.8-3.8c-2.2,0-3.9,1.7-3.9,3.8c0,2.2,1.6,3.8,3.8,3.8
	C123.2,50.2,124.9,48.6,124.9,46.4z"/>
<path class="st0" d="M150.5,31.6c0,1.5,0,2.9,0,4.3c0,0.6-0.3,0.7-0.8,0.7s-0.7-0.1-0.7-0.6c0-1,0-2,0-3c0-0.5-0.1-0.8-0.7-0.7
	c-1.4,0.1-2.8,0-4.1,0c-0.6,0-0.7,0.2-0.7,0.7c0,1,0,2,0,3c0,0.6-0.2,0.7-0.7,0.6c-0.4,0-0.8,0-0.8-0.6c0-3,0-5.9,0-8.9
	c0-0.6,0.3-0.6,0.7-0.6c0.5,0,0.7,0,0.7,0.6c0,1,0,2,0,3c0,0.5,0.1,0.8,0.7,0.8c1.4,0,2.8,0,4.2,0c0.5,0,0.6-0.1,0.6-0.6
	c0-1.1,0-2.1,0-3.1c0-0.6,0.2-0.7,0.8-0.7c0.5,0,0.7,0.1,0.7,0.6C150.5,28.7,150.5,30.2,150.5,31.6z"/>
<path class="st0" d="M95.4,51.7c0,0.3,0,0.5,0,0.8c0.1,0.7-0.3,0.7-0.8,0.7c-0.7,0-0.7-0.3-0.6-0.8c0.2-0.9-0.2-1.1-1.1-1.1
	c-1.5,0.1-3.1,0.1-4.6,0c-0.7,0-1,0.2-0.9,0.9c0.2,0.9-0.3,1.1-1.1,1c-0.1,0-0.2,0-0.2,0c-0.5-0.8-0.1-1.7-0.2-2.5
	c0-0.3,0-0.6,0.3-0.6c0.6,0.1,0.6-0.3,0.8-0.7c0.9-2.4,1.8-4.9,2.7-7.4c0.1-0.4,0.2-0.8,0.8-0.8c0.6,0,0.6,0.4,0.7,0.7
	c1,2.5,1.9,4.9,2.9,7.4c0.1,0.4,0.2,0.8,0.8,0.7c0.3,0,0.4,0.2,0.3,0.5C95.4,51,95.4,51.4,95.4,51.7z M90.5,43.4
	c-0.8,2.2-1.5,4.2-2.2,6.2c-0.2,0.5,0.1,0.5,0.4,0.5c1.2,0,2.3,0,3.5,0c0.6,0,0.7-0.2,0.5-0.7C92,47.5,91.3,45.6,90.5,43.4z"/>
<path class="st0" d="M121.4,31.3c1.9,0.8,2.5,1.9,2.1,3.4c-0.3,1.1-1.3,1.8-2.8,1.9c-1.1,0.1-2.2,0-3.3,0c-0.5,0-0.6-0.2-0.6-0.7
	c0-2.9,0-5.8,0-8.8c0-0.5,0.1-0.7,0.7-0.7c0.9,0,1.8,0,2.6,0c1.3,0.1,2.3,0.8,2.5,1.8C123,29.6,122.7,30.4,121.4,31.3z M118.2,33.7
	c0,1.7,0,1.7,1.7,1.6c1.6-0.1,2.3-0.6,2.3-1.6c0-1-0.8-1.5-2.3-1.6C118.2,32.2,118.2,32.2,118.2,33.7z M118.2,29.3
	c0,1.5,0,1.5,0.7,1.6c1.6,0,2.3-0.4,2.3-1.5c0-1-0.6-1.4-2.2-1.5C117.6,27.8,118.4,28.9,118.2,29.3z"/>
<path class="st0" d="M91.1,19.4c2-2.4,3.8-4.7,5.7-6.9c0.2-0.2,0.4-0.5,0.6-0.6c0.3-0.2,0.7-0.3,0.7,0.4c0,3,0,6.1,0,9.1
	c0,0.6-0.4,0.5-0.8,0.6c-0.4,0-0.7-0.1-0.7-0.6c0-1.9,0-3.8,0-5.7c0-0.2,0.2-0.6-0.1-0.7c-0.3-0.1-0.4,0.2-0.6,0.4
	c-1.7,2-3.3,4-5,5.9c-0.2,0.2-0.4,0.5-0.6,0.6c-0.3,0.2-0.7,0.2-0.7-0.4c0-3.1,0-6.2,0-9.3c0-0.6,0.4-0.5,0.7-0.5
	c0.4,0,0.7,0,0.7,0.6C91.1,14.7,91.1,16.9,91.1,19.4z"/>
<path class="st0" d="M154.4,33.9c1.8-2.2,3.7-4.4,5.5-6.6c0.1-0.2,0.3-0.3,0.4-0.5c0.2-0.3,0.5-0.3,0.7-0.2c0.3,0.1,0.2,0.4,0.2,0.6
	c0,3,0,5.9,0,8.9c0,0.6-0.3,0.6-0.7,0.6c-0.4,0-0.7,0-0.7-0.6c0-2,0-4,0-6c0-0.2,0-0.4,0-0.8c-1.8,2.1-3.4,4-5,5.9
	c-0.4,0.5-0.8,0.9-1.2,1.4c-0.2,0.2-0.4,0.3-0.6,0.2c-0.3-0.1-0.3-0.3-0.3-0.6c0-3,0-6.1,0-9.1c0-0.7,0.4-0.5,0.8-0.6
	c0.5-0.1,0.7,0.1,0.7,0.6c0,1.9,0,3.8,0,5.7c0,0.3,0,0.7,0,1C154.2,33.9,154.3,33.9,154.4,33.9z"/>
<path class="st0" d="M165.5,32.3c-1.4-0.7-2.2-1.7-2-3.3c0.2-1.1,0.9-2,2-2.2c1.3-0.3,2.6-0.2,3.9-0.2c0.4,0,0.5,0.2,0.5,0.5
	c0,3,0,6,0,9.1c0,0.6-0.4,0.5-0.8,0.5c-0.4,0-0.7,0.1-0.7-0.5c0-1,0-1.9,0-2.9c0-0.5-0.1-0.7-0.7-0.6c-1,0.1-1.6,0.6-2.1,1.4
	c-0.4,0.5-0.8,1.1-1.1,1.7c-0.5,1.1-1.2,1.3-2.3,0.9C163.3,35.1,164.1,33.5,165.5,32.3z M168.6,29.7c0-2,0.2-1.9-0.9-1.9
	c-1.9,0-2.7,0.5-2.7,1.7c0,1.2,0.9,1.7,2.7,1.8C169.3,31.3,168.3,30.1,168.6,29.7z"/>
<path class="st0" d="M88.9,31.6c0-1.4,0-2.8,0-4.2c0-0.6,0.1-0.8,0.7-0.8c2.4,0,4.7,0,7.1,0c0.5,0,0.7,0.1,0.7,0.7
	c0,2.9,0,5.9,0,8.8c0,0.5-0.1,0.7-0.7,0.7c-0.5,0-0.8,0-0.8-0.7c0-2.4,0-4.8,0-7.3c0-0.7-0.2-0.9-0.9-0.9c-1.3,0.1-2.6,0-3.9,0
	c-0.6,0-0.8,0.2-0.8,0.8c0,2.4,0,4.8,0,7.3c0,0.6-0.2,0.7-0.7,0.7c-0.5,0-0.8-0.1-0.7-0.7C88.9,34.5,88.9,33.1,88.9,31.6z"/>
<path class="st0" d="M115.6,36.6c-0.9,0.3-1.6,0.1-1.8-0.9c-0.4-1.7-1.5-2.2-3.1-2c-2,0.2-2,0-2.8,1.9c-0.5,1.2-0.5,1.2-1.9,1.1
	c0.8-1.8,1.5-3.7,2.3-5.5c0.6-1.4,1.2-2.7,1.7-4.1c0.1-0.3,0.3-0.6,0.7-0.5c0.4,0,0.6,0.1,0.8,0.5c1.4,3.1,2.7,6.2,4.1,9.3
	C115.6,36.4,115.6,36.5,115.6,36.6z M109.2,32.3c1.1,0,2,0,3,0c-0.5-1.2-1-2.3-1.6-3.5c-0.2,0.4-0.3,0.6-0.4,0.9
	C110,30.5,109.6,31.4,109.2,32.3z"/>
<path class="st0" d="M144.3,46.3c0-1.4,0-2.8,0-4.2c0-0.5,0.1-0.8,0.7-0.8c1.5,0,2.9,0,4.3,0c0.5,0,0.7,0.1,0.7,0.6
	c0,0.5-0.1,0.8-0.7,0.7c-0.9,0-1.8,0-2.6,0c-0.2,0-0.5-0.1-0.6,0c-0.8,0.7-0.2,1.6-0.4,2.4c-0.1,0.4,0.1,0.7,0.6,0.6
	c0.9,0,1.9,0,2.8,0c0.5,0,0.7,0.2,0.7,0.7c0,0.5-0.2,0.6-0.6,0.6c-0.9,0-1.9,0-2.8,0c-0.5,0-0.6,0.1-0.6,0.6
	c-0.1,2.5-0.1,2.5,2.3,2.5c0.4,0,0.8,0,1.2,0c0.5,0,0.8,0,0.8,0.6s-0.3,0.7-0.8,0.6c-1.5,0-2.9,0-4.3,0c-0.5,0-0.7-0.1-0.7-0.7
	C144.4,49.3,144.3,47.8,144.3,46.3z"/>
<path class="st0" d="M119.5,16.9c0-1.5,0-2.9,0-4.3c0-0.6,0.2-0.7,0.7-0.7c1.4,0,2.8,0,4.1,0c0.4,0,0.8-0.1,0.8,0.6
	c0,0.6-0.3,0.7-0.8,0.7c-0.9,0-1.9,0-2.8,0c-0.5,0-0.6,0.1-0.6,0.6c-0.1,2.4-0.1,2.4,2.2,2.4c0.4,0,0.7,0,1.1,0
	c0.6-0.1,0.7,0.1,0.8,0.7c0,0.6-0.3,0.6-0.7,0.6c-0.9,0-1.8,0-2.7,0c-0.5,0-0.6,0.1-0.6,0.6c-0.1,2.5-0.1,2.5,2.4,2.5
	c0.4,0,0.9,0,1.3,0c0.6-0.1,0.6,0.2,0.7,0.7c0,0.5-0.2,0.7-0.7,0.6c-1.5,0-2.9-0.1-4.3,0c-0.7,0-0.8-0.3-0.7-0.8
	C119.5,19.7,119.5,18.3,119.5,16.9z"/>
<path class="st0" d="M134.8,31.6c0-1.5,0-2.9,0-4.3c0-0.6,0.2-0.7,0.7-0.7c1.5,0,2.9,0,4.3,0c0.5,0,0.6,0.1,0.6,0.6
	c0,0.4,0,0.7-0.6,0.7c-1-0.1-2,0-2.9,0c-0.5,0-0.7,0.2-0.7,0.7c-0.1,2.3-0.1,2.3,2.2,2.3c0.4,0,0.9,0,1.3,0c0.6-0.1,0.6,0.2,0.6,0.7
	c0,0.5-0.2,0.6-0.6,0.6c-0.9,0-1.8,0-2.6,0c-0.2,0-0.5-0.1-0.6,0c-0.6,0.8-0.2,1.7-0.3,2.6c-0.1,0.6,0.4,0.5,0.7,0.5c1,0,2,0,3,0
	c0.6,0,0.6,0.3,0.6,0.7c0,0.5-0.2,0.6-0.7,0.6c-1.5,0-3,0-4.5,0c-0.6,0-0.7-0.2-0.6-0.7C134.8,34.5,134.8,33.1,134.8,31.6
	L134.8,31.6z"/>
<path class="st0" d="M137.2,21.8c1.4-3.2,2.7-6.4,4.1-9.6c0.1-0.3,0.3-0.4,0.7-0.4c0.3,0,0.6,0,0.7,0.4c1.4,3.2,2.8,6.4,4.2,9.6
	c-1.1,0.4-1.7,0-1.9-1c-0.4-1.6-1.4-2-2.9-2c-1.6,0-2.6,0.4-2.9,2C138.8,21.8,138.2,22.1,137.2,21.8z M141.9,14
	c-0.2,0.5-0.4,0.8-0.5,1.2c-1.1,2.6-1.1,2.6,1.8,2.4c0.1,0,0.1,0,0.2-0.1C142.9,16.4,142.4,15.3,141.9,14z"/>
<path class="st0" d="M78.4,26.6c1.1-0.3,1.5,0.1,1.9,1c0.9,2.4,2,4.7,3,7.1c0.5-0.8,0.7-1.6,0.9-2.3c0.6-1.6,1.1-3.2,1.7-4.8
	c0.4-1.2,0.4-1.2,1.8-1c-1.4,3.6-2.7,7.2-4.1,10.7c-0.3,0.9-1,1.5-2,1.6c-1.2,0-1.4-0.2-1.3-1.5c0.2,0.1,0.5,0.2,0.7,0.2
	c0.5,0.1,1,0.1,1.4-0.4c0.4-0.4,0.2-0.8,0-1.3c-1.3-2.9-2.5-5.7-3.7-8.6C78.6,27.2,78.5,26.9,78.4,26.6z"/>
<path class="st0" d="M108.8,19.7c0.1,1.6,0.1,1.6-1.3,2.1c-3.4,1.1-6.4-0.4-7.4-3.5c-0.9-2.8,1.2-6,4-6.5c1.2-0.2,2.3-0.1,3.4,0.2
	c1,0.3,1.6,0.7,1.2,1.9c-0.7-0.3-1.5-0.6-2.3-0.8c-1.7-0.4-3.5,0.2-4.4,1.5c-0.9,1.3-0.9,3.1,0,4.4c0.9,1.4,3,2,5,1.4
	C107.6,20.2,108.2,19.9,108.8,19.7z"/>
<path class="st0" d="M87.8,14c-1.1-0.4-2.1-1-3.4-0.9c-2.4,0-4.1,1.7-4,4.1c0.1,2.2,2,3.8,4.4,3.6c1.1-0.1,2.1-0.5,3-1
	c0.2,1.5,0.2,1.6-1.1,2c-3.4,1.2-6.6-0.2-7.6-3.4c-0.9-2.8,1.2-6,4-6.4c1.1-0.2,2.2-0.1,3.3,0.2C87.9,12.4,87.9,12.4,87.8,14z"/>
<path class="st0" d="M99.5,31.7c0-1.5,0-3,0-4.4c0-0.5,0-0.7,0.6-0.7c1.1,0.1,2.3-0.1,3.4,0.1c1.5,0.3,2.3,1.3,2.2,2.9
	c0,1.3-1,2.4-2.4,2.6c-0.2,0-0.3,0-0.5,0c-0.6,0-1.5-0.2-1.8,0.2c-0.4,0.4-0.1,1.3-0.1,1.9c0,0.4,0,0.9,0,1.3c0,0.5,0.1,1-0.8,1
	c-0.8,0-0.7-0.5-0.7-1C99.5,34.4,99.5,33,99.5,31.7z M101.9,27.9c-0.8-0.2-1.1,0.2-0.9,1.1c0,0.2,0,0.4,0,0.6c0,1.5,0,1.5,1.5,1.4
	c0.2,0,0.3,0,0.5-0.1c1-0.2,1.4-0.9,1.3-1.8C104.1,28.2,103.5,27.9,101.9,27.9z"/>
<path class="st0" d="M108.6,46.4c0-1.5,0-2.9,0-4.4c0-0.5,0.1-0.7,0.7-0.7c1.1,0.1,2.3-0.1,3.4,0.1c1.9,0.4,2.2,1.7,2.2,3
	c0,1.3-1,2.3-2.4,2.5c-0.6,0.1-1.2,0.1-1.8,0.1c-0.4,0-0.6,0.1-0.6,0.6c0,1,0,2.1,0,3.1c0,0.7-0.3,0.7-0.8,0.7
	c-0.5,0-0.7-0.1-0.7-0.7C108.6,49.3,108.6,47.9,108.6,46.4L108.6,46.4z M110,44.1c0.1,0.8-0.4,1.8,1.1,1.6c1.6-0.1,2.2-0.5,2.2-1.6
	c0-1.2-0.6-1.5-2.4-1.6C109.4,42.6,110.3,43.7,110,44.1z"/>
<path class="st0" d="M79.1,49.5c0.6,0.2,1.2,0.5,1.9,0.6c0.5,0.1,1,0,1.5-0.1c0.6-0.2,1.1-0.6,1.2-1.4c0-0.8-0.4-1.2-1.1-1.5
	c-0.6-0.2-1.3-0.2-2-0.2c-0.4,0-0.7,0-0.7-0.6c0-0.6,0.2-0.7,0.8-0.7c0.6,0,1.2,0,1.7-0.1c0.8-0.2,1.3-0.7,1.3-1.6
	c0-0.8-0.6-1.2-1.4-1.3c-0.8-0.1-1.5,0.1-2.3,0.2c-0.2,0-0.6,0.5-0.7,0c-0.1-0.4-0.3-0.9,0.2-1.2c1.4-0.5,2.9-0.8,4.3-0.2
	c1.5,0.7,1.8,2.9,0.5,4.1c-0.2,0.2-0.5,0.4-0.8,0.6c0.9,0.5,1.6,1.2,1.7,2.3c0.1,1.9-1.4,3.1-3.8,3c-0.3,0-0.6-0.1-0.9-0.1
	C78.9,51.2,78.9,51.1,79.1,49.5z"/>
<path class="st0" d="M137.8,43.5c0,0.7-0.2,1.5,0.1,2c0.3,0.4,1.2,0.1,1.8,0.2c1.7,0.2,2.8,1.1,3.1,2.4c0.3,1.8-0.9,3.2-2.9,3.4
	c-1,0.1-2,0-3,0c-0.4,0-0.6-0.2-0.6-0.6c0-3,0-5.9,0-8.9c0-0.6,0.3-0.6,0.7-0.6c0.4,0,0.8,0,0.7,0.6
	C137.7,42.4,137.8,42.9,137.8,43.5C137.8,43.5,137.8,43.5,137.8,43.5z M137.8,48.5c0.2,0.6-0.5,1.7,1,1.6c1.8-0.1,2.6-0.5,2.6-1.6
	c0-1.2-0.7-1.6-2.5-1.7C137.2,46.8,138,47.9,137.8,48.5z"/>
<path class="st0" d="M133.5,36.6c-0.9,0.3-1.4,0-1.8-0.9c-0.9-2.3-2-4.6-3.1-7.1c-0.7,1.8-1.4,3.4-2.1,5.1c-0.3,0.6-0.6,1.3-0.8,2
	c-0.3,1-0.8,1.4-1.9,1c1-2.4,2-4.7,3-7.1c0.3-0.8,0.7-1.6,1-2.4c0.1-0.3,0.3-0.5,0.7-0.5c0.4,0,0.6,0.1,0.8,0.5
	c1.4,3.1,2.7,6.2,4.1,9.3C133.5,36.4,133.5,36.5,133.5,36.6z"/>
<path class="st0" d="M114.7,17.6c0,1.3,0,2.5,0,3.7c0,0.6-0.3,0.6-0.7,0.6c-0.5,0-0.7-0.1-0.7-0.6c0-2.4,0-4.8,0-7.3
	c0-0.8-0.2-1-1-0.9c-0.6,0.1-1.1,0-1.7,0c-0.5,0-0.8,0-0.8-0.7c0-0.7,0.3-0.6,0.8-0.6c2.3,0,4.6,0,6.8,0c0.5,0,0.7,0,0.7,0.6
	c0,0.5-0.2,0.7-0.7,0.7c-0.7,0-1.4,0-2.1,0c-0.5,0-0.7,0.1-0.7,0.6C114.7,15,114.7,16.3,114.7,17.6z"/>
</svg>
