<?xml version="1.0" encoding="utf-8"?>
<!-- Generator: Adobe Illustrator 19.2.0, SVG Export Plug-In . SVG Version: 6.00 Build 0)  -->
<svg version="1.1" id="Layer_1" xmlns="http://www.w3.org/2000/svg" xmlns:xlink="http://www.w3.org/1999/xlink" x="0px" y="0px"
	 width="164px" height="37px" viewBox="0 0 164 37" style="enable-background:new 0 0 164 37;" xml:space="preserve">
<style type="text/css">
	.st0{fill:#4B4A4D;}
	.st1{fill:#F7941E;}
</style>
<g>
	<polygon class="st0" points="84.1,9.5 58.2,9.5 58.2,16.1 67.7,16.1 67.7,37 74.6,37 74.6,16.1 84.1,16.1 	"/>
	<path class="st0" d="M157.1,9.5c-1.6,0-3.4,0-3.4,0h-14.9h-6.9v6.6v14.3V37h6.9h14.9c0,0,1.9,0,3.4,0s6.9-3,6.9-6s0-3,0-3v-9.5
		c0,0,0,0,0-3C164,12.6,158.7,9.5,157.1,9.5z M157.1,28c0,0-0.7,2.4-3.4,2.4h-14.9V16.1h14.9c2.7,0,3.4,2.4,3.4,2.4V28z"/>
	<polygon class="st0" points="121.6,9.5 119.4,9.5 116,9.5 107.1,26.6 98.2,9.5 94.8,9.5 92.6,9.5 87.9,9.5 87.9,37 94.8,37 
		94.8,19 103.8,37 107.1,37 110.4,37 119.4,19 119.4,37 126.3,37 126.3,9.5 	"/>
</g>
<rect class="st1" width="41.4" height="9.5"/>
<rect y="16.1" class="st1" width="41.4" height="20.9"/>
</svg>
