<?xml version="1.0" encoding="utf-8"?>
<!-- Generator: Adobe Illustrator 19.2.0, SVG Export Plug-In . SVG Version: 6.00 Build 0)  -->
<svg version="1.1" id="Layer_1" xmlns="http://www.w3.org/2000/svg" xmlns:xlink="http://www.w3.org/1999/xlink" x="0px" y="0px"
	 width="270px" height="30px" viewBox="0 0 270 30" style="enable-background:new 0 0 270 30;" xml:space="preserve">
<style type="text/css">
	.st0{fill:#0000FF;}
</style>
<polygon id="Fill-1" points="0,0.6 0,6.7 8.8,6.7 8.8,29.4 15.2,29.4 15.2,6.7 20.2,6.7 20.2,0.6 "/>
<path id="Fill-2" d="M27,29.4h-6.1V0.6H27v9.9c1.3-1.3,3.3-1.8,5.1-1.8c5.2,0,7.6,3.6,7.6,8v12.6h-6.1V17.8c0-2-1.1-3.5-3.3-3.5
	c-1.9,0-3.2,1.4-3.3,3.2V29.4L27,29.4z"/>
<path id="Fill-4" d="M55,16.9c-0.1-1.5-1.1-3.4-4-3.4c-2.6,0-3.9,1.9-4,3.4H55z M60.5,23.6c-1,3.5-4.2,6.4-9.2,6.4
	c-5.5,0-10.4-4-10.4-10.8c0-6.5,4.8-10.6,10-10.6c6.2,0,10,3.8,10,10.3c0,0.9-0.1,1.8-0.1,1.9h-14c0.1,2.3,2.2,3.9,4.5,3.9
	c2.2,0,3.5-1.1,4-2.6L60.5,23.6z"/>
<polygon id="Fill-6" points="78.9,6.7 78.9,29.4 72.6,29.4 72.6,6.7 63.8,6.7 63.8,0.6 78.9,0.6 "/>
<polygon id="Fill-8" points="80.9,29.4 87,29.4 87,9.2 80.9,9.2 "/>
<path id="Fill-10" d="M88.9,29.4V9.2h5.8v2.3c1-1.8,3.6-2.9,5.8-2.9c2.9,0,4.9,1.2,5.9,3.2c1.6-2.3,3.5-3.2,6.2-3.2
	c3.8,0,7.4,2.2,7.4,7.7v13.1h-5.9V17.7c0-1.9-1-3.4-3.2-3.4s-3.3,1.6-3.3,3.4v11.6h-6V17.7c0-1.9-1-3.4-3.2-3.4s-3.3,1.6-3.3,3.5
	v11.6C95.1,29.4,88.9,29.4,88.9,29.4z"/>
<path id="Fill-11" d="M135.4,16.9c-0.1-1.5-1.1-3.4-4-3.4c-2.6,0-3.9,1.9-4,3.4H135.4z M140.9,23.6c-1,3.5-4.2,6.4-9.2,6.4
	c-5.5,0-10.4-4-10.4-10.8c0-6.5,4.8-10.6,10-10.6c6.2,0,10,3.8,10,10.3c0,0.9-0.1,1.8-0.1,1.9h-13.9c0.1,2.3,2.2,3.9,4.5,3.9
	c2.2,0,3.5-1.1,4-2.6L140.9,23.6z"/>
<path id="Fill-12" class="st0" d="M189.9,19.2c0-3.4-2.2-5-4.5-5s-4.5,1.6-4.5,5s2.2,5,4.5,5C187.7,24.3,189.9,22.7,189.9,19.2
	 M196,19.2c0,6.3-4.6,10.7-10.6,10.7s-10.6-4.5-10.6-10.7s4.7-10.7,10.6-10.7C191.4,8.6,196,13,196,19.2"/>
<path id="Fill-13" class="st0" d="M203.4,29.6h-6.1V9.5h5.9v2.3c1.1-1.9,3.5-2.9,5.6-2.9c5.1,0,7.3,3.6,7.3,8v12.6H210V18
	c0-2-1.1-3.5-3.3-3.5c-2,0-3.3,1.5-3.3,3.5V29.6L203.4,29.6z"/>
<path id="Fill-14" class="st0" d="M232.9,19.2c0-3.4-2.2-5-4.5-5s-4.5,1.6-4.5,5s2.2,5,4.5,5C230.7,24.3,232.9,22.7,232.9,19.2
	 M239,19.2c0,6.3-4.6,10.7-10.6,10.7s-10.6-4.5-10.6-10.7s4.7-10.7,10.6-10.7C234.4,8.6,239,13,239,19.2"/>
<path id="Fill-15" class="st0" d="M253,15.6c-0.7-0.2-1.3-0.2-1.9-0.2c-2.5,0-4.7,1.4-4.7,5.5v8.8h-6.1V9.5h5.9v2.7
	c1.1-2.3,3.6-2.9,5.2-2.9c0.6,0,1.2,0.1,1.6,0.2V15.6L253,15.6z"/>
<path id="Fill-16" class="st0" d="M258.8,22.7c0.1,1.4,1.1,2.7,3.1,2.7c1.6,0,2.3-0.9,2.3-1.8c0-0.7-0.5-1.3-2-1.6l-2.3-0.5
	c-4.3-0.9-6-3.4-6-6.2c0-3.7,3.2-6.7,7.7-6.7c5.8,0,7.8,3.6,8,6l-5.1,0.9c-0.2-1.3-1-2.5-2.9-2.5c-1.2,0-2.2,0.7-2.2,1.8
	c0,0.9,0.7,1.3,1.6,1.5l2.7,0.5c4.2,0.9,6.2,3.4,6.2,6.3c0,3.4-2.6,6.8-8,6.8c-6.3,0-8.3-4.1-8.5-6.3L258.8,22.7z"/>
<path id="Fill-17" class="st0" d="M83.9,0c2,0,3.6,1.6,3.6,3.6s-1.6,3.6-3.6,3.6c-1.9,0-3.5-1.6-3.5-3.6S82,0,83.9,0"/>
<path id="Fill-18" class="st0" d="M159.2,23.4c4.4,0,8-2.5,8-8.3s-3.6-8.4-8-8.4h-3.7v16.7H159.2z M149.2,29.5V0.7h10.3
	c8.6,0,14.3,5.5,14.3,14.4s-5.8,14.4-14.4,14.4H149.2z"/>
</svg>
