<?xml version="1.0" encoding="utf-8"?>
<!-- Generator: Adobe Illustrator 19.2.0, SVG Export Plug-In . SVG Version: 6.00 Build 0)  -->
<svg version="1.1" id="Layer_1" xmlns="http://www.w3.org/2000/svg" xmlns:xlink="http://www.w3.org/1999/xlink" x="0px" y="0px"
	 width="270px" height="63px" viewBox="0 0 270 63" style="enable-background:new 0 0 270 63;" xml:space="preserve">
<style type="text/css">
	.st0{fill:#3FD5DA;}
</style>
<path class="st0" d="M0,14.1c2.4-0.4,4.8-0.6,7.3-0.6c3.7,0,6.5,0.9,8.2,2.4c1.7,1.6,2.7,3.7,2.6,6.1c0,2.6-0.8,4.7-2.3,6.2
	c-2,2.1-5.2,3.1-9,3.1c-1,0-2.1-0.1-3-0.3v11.6H0V14.1z M3.8,28c1,0.2,2.1,0.3,3.1,0.3c4.6,0,7.3-2.2,7.3-6.1s-2.8-5.7-6.9-5.7
	c-1.2,0-2.4,0.1-3.6,0.3L3.8,28L3.8,28z"/>
<path class="st0" d="M25.6,13.7v12.1h14.2V13.7h3.8v28.9h-3.8V29.1H25.6v13.5h-3.8V13.7H25.6z"/>
<path class="st0" d="M60.6,43.1c-7.8,0-13.2-5.9-13.2-14.6c0-9.2,5.7-15.2,13.6-15.2c8,0,13.2,6.1,13.2,14.6
	C74.3,37.7,68.1,43.1,60.6,43.1L60.6,43.1z M60.9,40.1c6,0,9.4-5.4,9.4-12c0-5.7-3-11.7-9.3-11.7s-9.5,5.8-9.5,12.1
	C51.4,34.4,54.8,40.1,60.9,40.1L60.9,40.1z"/>
<path class="st0" d="M93.4,29.1H82.1v10.4h12.7v3.1H78.3V13.7h15.9v3.1H82.1V26h11.3V29.1L93.4,29.1z"/>
<path class="st0" d="M99.7,42.6V13.7h4.1l9.3,14.6c1.9,3,3.7,6.1,5.2,9.4l0.1-0.1c-0.3-3.9-0.4-7.4-0.4-11.8V13.7h3.6v28.9h-3.8
	L108.5,28c-2-3.1-3.9-6.3-5.5-9.7h0c0.2,3.6,0.3,7.1,0.3,11.9v12.3L99.7,42.6C99.7,42.5,99.7,42.6,99.7,42.6z"/>
<path class="st0" d="M132.1,13.7v28.9h-3.8V13.7H132.1z"/>
<path class="st0" d="M154.7,42.6l-3.8-6.4c-1.5-2.5-2.4-4-3.3-5.7h-0.1c-0.8,1.6-1.7,3.2-3.2,5.7l-3.5,6.3h-4.4l9-14.6l-8.6-14.3
	h4.4l3.9,6.8c1.1,1.9,1.9,3.3,2.7,4.9h0.1c0.8-1.7,1.6-3.1,2.6-4.9l3.9-6.8h4.4L150,27.7l9.1,14.8L154.7,42.6L154.7,42.6z"/>
<path class="st0" d="M216.8,49l-14,14h2.9l13.5-13.3L210,63h2.1l9.1-12.7L215.5,63h1.6l2.3-5l-1.4,5h18l-1.6-5.9l2.8,5.9h1.6
	l-5.5-12.7l9,12.7h2.1l-9-13.3L248.7,63h2.9l-13.7-13.8L257.6,63h4c-0.1-0.2-0.2-0.3-0.4-0.5l-20.3-14.1l22.5,10.3
	c0.8,0.3,1.6,0,1.9-0.7s0.1-1.6-0.7-1.9L244,46.6l22,5.8c0.9,0.2,1.9-0.3,2.1-1.2s-0.3-1.8-1.2-2l-19.4-5.1l20,1.7
	c1,0.1,2-0.7,2.1-1.7s-0.7-2-1.7-2l-17.4-1.4l17.4-1.5c1.2-0.1,2.1-1,2.1-2.2c-0.1-1.2-1-2.1-2.3-2c-0.1,0-0.1,0-0.2,0l-14.7,1.2
	l14.4-3.8c1.3-0.3,2.1-1.6,1.8-2.8c-0.3-1.3-1.6-2-2.8-1.8c-0.1,0-0.1,0-0.2,0.1L254.3,31l11.1-5.1c1.3-0.6,1.9-2.2,1.2-3.5
	c-0.6-1.2-2.1-1.8-3.4-1.2l-8.6,4l7.9-5.4c1.3-0.8,1.8-2.5,1-3.8s-2.6-1.8-3.9-1c-0.1,0.1-0.2,0.1-0.3,0.2l-5.7,3.9l4.9-4.8
	c1.2-1.2,1.3-3.1,0.1-4.3s-3.1-1.3-4.4-0.1c-0.1,0.1-0.1,0.1-0.1,0.1l-17.8,17.5l0,0c5,6.6,3.8,14,0,14c-2.9,0-3.3-2.9-3.3-8V7.2
	c0-4.7-3.8-8.4-9.2-6.9c7.3,0.8,7.1,15.6-1,28.5c-2.2,3.4-4.6,8.2-5.7,12.7c-4.6-2.4-3.1-10.6,1.5-14.3l0,0l-18-17.4
	c-1.2-1.2-3.2-1.2-4.4,0s-1.2,3.1,0,4.3l4.9,4.8l-5.7-3.9c-1.3-0.8-3.1-0.5-3.9,0.8c-0.8,1.2-0.5,2.9,0.7,3.7l7.9,5.4l-8.7-4
	c-1.4-0.5-2.8,0.3-3.3,1.6c-0.4,1.2,0.1,2.4,1.1,3l11.1,5.1l-11.8-3.1c-1.3-0.3-2.6,0.5-2.8,1.8c-0.3,1.2,0.4,2.4,1.6,2.7l14.4,3.8
	l-14.8-1.3c-1.2-0.1-2.2,0.7-2.3,1.9s0.8,2.2,1.9,2.3l0,0l17.4,1.5l-17.3,1.5c-1,0.1-1.9,1-1.7,2c0.1,1,1,1.8,2.1,1.7l20-1.7
	L187.5,49c-0.9,0.3-1.5,1.2-1.2,2c0.3,0.9,1.2,1.4,2.1,1.2l22-5.8l-20.6,9.5c-0.7,0.3-1,1.2-0.6,2c0.3,0.7,1.2,1,1.9,0.7l22.8-10.5
	l-20.6,14.2c-0.2,0.1-0.3,0.3-0.5,0.6h3.9L216.8,49z"/>
</svg>
