<?xml version="1.0" encoding="utf-8"?>
<!-- Generator: Adobe Illustrator 19.2.0, SVG Export Plug-In . SVG Version: 6.00 Build 0)  -->
<svg version="1.1" id="Layer_1" xmlns="http://www.w3.org/2000/svg" xmlns:xlink="http://www.w3.org/1999/xlink" x="0px" y="0px"
	 width="130px" height="124px" viewBox="0 0 130 124" style="enable-background:new 0 0 130 124;" xml:space="preserve">
<style type="text/css">
	.st0{clip-path:url(#SVGID_2_);}
	.st1{fill:#FFFFFF;}
	.st2{clip-path:url(#SVGID_4_);}
</style>
<g id="Слой_2">
	<g id="Слой_1-2">
		<g>
			<g>
				<defs>
					<rect id="SVGID_1_" y="0.1" width="130" height="123.8"/>
				</defs>
				<clipPath id="SVGID_2_">
					<use xlink:href="#SVGID_1_"  style="overflow:visible;"/>
				</clipPath>
				<g class="st0">
					<path class="st1" d="M65,0.1l9.7,19.8h-2.3L67.1,9.1c-0.8-2-2.8-3.1-4.2-0.1l-8.2,16.7l-0.8-3.1L65,0.1z M89.5,41l37.4,6.4
						l-23.4,24.8h-2.8l18.6-19.8c1.9-2.1,2-4.1,0-4.3l-30.6-5.3L89.5,41z M99.9,100.7l3.4,23.3L65,103.7l-38.2,20.2l3.4-23.3h2.1
						L30,115.4c-0.4,3.1,1,4,4,2.3L65,101.3l30.9,16.4c3.2,1.6,4.2-0.4,3.8-3l-2.1-14L99.9,100.7z M26.1,71.9L3.1,47.4l31-5.4
						l-0.5,2.2l-23.1,4c-2,0.3-1.4,2.5,0.1,4.1l15.6,16.6L26.1,71.9L26.1,71.9z"/>
				</g>
			</g>
		</g>
		<g>
			<g>
				<defs>
					<rect id="SVGID_3_" y="0.1" width="130" height="123.8"/>
				</defs>
				<clipPath id="SVGID_4_">
					<use xlink:href="#SVGID_3_"  style="overflow:visible;"/>
				</clipPath>
				<g class="st2">
					<path class="st1" d="M63.1,71.5h-12v-1.2h3.2l-2.5-9.5h-8.2l-0.6,2.4l-0.5,2.8c-0.1,0.5-0.1,1-0.1,1.4c0,0.3,0.1,0.5,0.1,0.8
						c0.1,0.6,0.5,1.2,1.1,1.5c0.8,0.3,1.6,0.5,2.5,0.5v1.2h-9v-1.2c1.3,0,2.5-0.8,3-1.9c0.6-1.4,1-2.9,1.4-4.4l7.6-29.8h2.6
						l9.1,36.2h2.4V71.5z M51.6,59.5l-3.8-15.4l-4,15.4H51.6z M86,57.9v13.6H63.5l15.2-35.7h-3.2c-1.9,0-3.6,0.8-4.9,2.1
						c-2,1.9-3.3,5-4,9.4h-1.4V34.5h20.8L70.7,70.3h2.7c2.3,0,4.5-1,6.4-2.9c2.4-2.3,4-5.4,4.7-9.5H86z"/>
					<path class="st1" d="M11.7,89.3H7.5v-0.3c0.3,0,0.7-0.1,1-0.1C8.8,88.7,9,88.4,8.9,88c0-0.4-0.1-0.9-0.3-1.2L8,85.1H3.1
						l-0.9,2.1c-0.1,0.3-0.1,0.5-0.1,0.8c-0.1,0.3,0.1,0.6,0.4,0.8c0.2,0.1,0.5,0.1,0.8,0.1v0.3H0v-0.3l0.5-0.1
						c0.1-0.1,0.3-0.1,0.4-0.3c0.5-0.9,1-1.8,1.3-2.8l3.6-9.7h0.1L10,87.2c0.1,0.5,0.5,1,0.8,1.4c0.3,0.2,0.6,0.3,0.9,0.3V89.3z
						 M7.8,84.4l-2.2-6.4l-2.3,6.4H7.8z"/>
					<path class="st1" d="M22.1,85.9l-0.4,3.4h-9.5v-0.1l8.2-12.2h-4.5c-0.8-0.1-1.7,0.2-2.3,0.8c-0.3,0.5-0.5,1.2-0.6,1.8h-0.4
						l0.3-3.2h8.8v0.1l-8.2,12.2h5c0.8,0.1,1.6-0.2,2.3-0.8c0.4-0.5,0.7-1.2,0.8-1.9L22.1,85.9z"/>
					<path class="st1" d="M34.3,89.3h-4.2v-0.3c0.3,0,0.7-0.1,1-0.1c0.3-0.1,0.5-0.4,0.4-0.8c0-0.4-0.1-0.9-0.3-1.2l-0.6-1.7h-4.9
						l-0.9,2.2c-0.1,0.3-0.1,0.5-0.1,0.8c-0.1,0.3,0.1,0.6,0.4,0.8c0.2,0.1,0.5,0.1,0.8,0.1v0.4h-3.2V89l0.5-0.1
						c0.1-0.1,0.3-0.1,0.4-0.3c0.5-0.9,1-1.8,1.3-2.8l3.6-9.7h0.1l4.2,11.1c0.1,0.5,0.5,1,0.8,1.4c0.3,0.2,0.6,0.3,0.9,0.3
						C34.3,88.9,34.3,89.3,34.3,89.3z M30.4,84.4l-2.3-6.5l-2.3,6.4L30.4,84.4z"/>
					<path class="st1" d="M45.8,89.3h-2.4l-4.2-6.2l-1.5,0.1v3.8c-0.1,0.5,0.1,1,0.4,1.4c0.4,0.3,0.9,0.5,1.4,0.5v0.3h-4.5v-0.3
						c0.5,0,1-0.2,1.4-0.5c0.3-0.5,0.4-1.1,0.3-1.6v-8.1c0.1-0.5-0.1-1.1-0.4-1.5c-0.3-0.3-0.8-0.5-1.3-0.5v-0.3h4.7
						c1-0.1,1.9,0.1,2.7,0.5c1,0.5,1.6,1.6,1.6,2.8c0.1,1-0.4,2-1.2,2.5c-0.6,0.3-1.3,0.6-2.1,0.8l3.6,5.3c0.4,0.5,1,0.7,1.6,0.7
						V89.3z M42.5,79.7c0.1-1.1-0.5-2.1-1.6-2.5c-0.7-0.3-1.4-0.4-2.1-0.3c-0.3,0-0.6,0.1-0.9,0.1c-0.2,0.2-0.3,0.5-0.3,0.8v4.8
						c1,0.1,2.1-0.1,3.1-0.3C41.8,81.9,42.6,80.8,42.5,79.7"/>
					<path class="st1" d="M56,86l-0.8,3.2h-9.1v-0.3c0.5,0,0.9-0.1,1.3-0.3c0.3-0.4,0.5-1,0.5-1.4v-8.6c0.1-0.5-0.1-1.1-0.5-1.5
						c-0.4-0.2-0.8-0.3-1.3-0.3v-0.3h9.1l0.1,2.6h-0.3c0-0.6-0.3-1.2-0.7-1.7c-0.6-0.3-1.3-0.4-1.9-0.3h-2.5c-0.2,0-0.3,0-0.5,0.1
						C49.1,77,49,77.2,49,77.5v4.5h2.9c0.5,0.1,1.1-0.1,1.5-0.4c0.3-0.4,0.4-0.9,0.5-1.4h0.3v4.4h-0.3c0-0.5-0.2-1.1-0.5-1.5
						c-0.4-0.3-1-0.4-1.4-0.3h-2.9v4.9c-0.1,0.3,0.1,0.7,0.5,0.8c0.8,0.1,1.6,0.2,2.5,0.1c0.8,0.1,1.6-0.1,2.4-0.5
						c0.6-0.5,1.1-1.2,1.4-2.1L56,86z"/>
					<path class="st1" d="M68.2,76.6c-0.4,0-0.8,0.1-1.2,0.4c-0.3,0.6-0.4,1.4-0.3,2.1v10.4l0,0l-8-11.1h-0.2v7.9
						c-0.1,0.7,0.1,1.4,0.4,2.1c0.3,0.4,0.8,0.6,1.4,0.6v0.4h-3.8v-0.3c0.6,0,1.2-0.3,1.4-0.9c0.1-0.6,0.1-1.2,0.1-1.8v-8.7
						c-0.2-0.3-0.4-0.6-0.8-0.8c-0.3-0.1-0.5-0.1-0.8-0.1v-0.3h2.4l7.3,10.3V79c0.1-0.7-0.1-1.4-0.4-2.1c-0.4-0.3-0.9-0.4-1.4-0.4
						v-0.3h3.8V76.6z"/>
					<path class="st1" d="M80.1,82.8c0.1,1.8-0.5,3.6-1.6,4.9c-1.9,2.2-5.1,2.4-7.3,0.5c-0.2-0.1-0.4-0.3-0.5-0.5
						c-1.1-1.4-1.7-3.2-1.6-4.9c-0.1-1.9,0.5-3.6,1.7-5.1c1.9-2.1,5.1-2.3,7.3-0.3c0.1,0.1,0.3,0.2,0.3,0.3
						C79.6,79,80.2,80.9,80.1,82.8 M78.9,82.8c0.1-1.7-0.4-3.5-1.4-4.9c-0.7-0.9-1.7-1.4-2.8-1.4c-1.1,0-2.1,0.5-2.8,1.4
						c-1,1.4-1.6,3.2-1.4,4.9c-0.1,1.7,0.4,3.4,1.4,4.8c0.7,0.9,1.7,1.4,2.9,1.4c1.2,0,2.2-0.5,2.9-1.4C78.5,86.2,79,84.5,78.9,82.8
						"/>
					<path class="st1" d="M93,89.3h-5v-0.3c0.3,0,0.7-0.1,1-0.2c0.2-0.1,0.3-0.3,0.3-0.4c0-0.3-0.8-1.4-2.3-3.3l-1.9-2.3l-1,1v3.4
						c-0.1,0.5,0.1,1,0.3,1.4c0.4,0.3,0.9,0.4,1.4,0.4v0.3h-4.7v-0.3c0.5,0,1-0.1,1.4-0.5c0.3-0.5,0.4-1,0.3-1.6v-8.5
						c0.1-0.5-0.1-1-0.4-1.4c-0.4-0.2-0.9-0.3-1.3-0.3v-0.3H86v0.3c-0.5,0-1,0.1-1.4,0.3c-0.3,0.4-0.5,0.9-0.4,1.4V83
						c2-2.1,3.4-3.5,3.9-4.3c0.4-0.4,0.8-1,0.8-1.6c0-0.1-0.1-0.3-0.2-0.3c-0.3-0.1-0.5-0.1-0.9-0.1v-0.3h4.3v0.3l-0.8,0.1
						c-0.3,0-0.5,0.1-0.8,0.2c-0.4,0.3-0.8,0.6-1.1,1l-3.6,3.9l4.3,5.2c0.4,0.5,0.9,1,1.4,1.4c0.4,0.3,0.8,0.4,1.3,0.4L93,89.3z"/>
					<path class="st1" d="M106.7,79.7c0,1-0.3,1.9-1,2.6c-0.8,0.8-1.9,1.1-3.6,1.1c-0.7,0-1.2,0-1.5,0v3.5c-0.1,0.5,0.1,1.1,0.4,1.5
						c0.4,0.3,0.9,0.5,1.4,0.4v0.3h-4.7v-0.3c0.5,0,1-0.2,1.4-0.6c0.3-0.5,0.3-1,0.3-1.6v-8.2c0.1-0.5-0.1-1-0.3-1.4
						c-0.4-0.3-0.9-0.4-1.4-0.4v-0.3h4.5c1.1-0.1,2.2,0.2,3.1,0.8C106.3,77.7,106.8,78.7,106.7,79.7 M105.5,79.9
						c0-1.9-1.4-2.9-4-2.9c-0.2,0-0.5,0-0.6,0.1c-0.1,0.2-0.2,0.4-0.2,0.7v5.1c0.5,0.1,0.9,0.1,1.4,0.1
						C104.3,82.9,105.5,81.9,105.5,79.9"/>
					<path class="st1" d="M118.2,89.3h-2.4l-4.2-6.2l-1.5,0.1v3.8c-0.1,0.5,0.1,1,0.4,1.4c0.4,0.3,0.9,0.5,1.4,0.5v0.3h-4.6v-0.3
						c0.5,0,1-0.2,1.4-0.5c0.3-0.5,0.4-1.1,0.3-1.6v-8.1c0.1-0.5-0.1-1.1-0.4-1.5c-0.3-0.3-0.8-0.5-1.3-0.5v-0.3h4.7
						c1-0.1,1.9,0.1,2.7,0.5c1,0.5,1.6,1.6,1.6,2.8c0.1,1-0.4,1.9-1.2,2.5c-0.6,0.3-1.3,0.6-2.1,0.8l3.6,5.3c0.4,0.5,1,0.7,1.6,0.7
						L118.2,89.3z M115,79.7c0.1-1.1-0.5-2.1-1.6-2.5c-0.7-0.3-1.4-0.4-2.1-0.3c-0.3,0-0.6,0.1-0.9,0.1c-0.2,0.2-0.3,0.5-0.3,0.8
						v4.8c1,0.1,2.1-0.1,3.1-0.3C114.3,81.9,115.1,80.8,115,79.7"/>
					<path class="st1" d="M130,82.8c0.1,1.8-0.5,3.6-1.6,4.9c-1.9,2.2-5.1,2.4-7.3,0.5c-0.2-0.1-0.4-0.3-0.5-0.5
						c-1.1-1.4-1.7-3.2-1.6-4.9c-0.1-1.9,0.5-3.6,1.7-5.1c1.9-2.1,5.1-2.3,7.3-0.3c0.1,0.1,0.3,0.2,0.3,0.3
						C129.5,79,130.1,80.9,130,82.8 M128.7,82.8c0.1-1.7-0.4-3.5-1.4-4.9c-0.7-0.9-1.7-1.4-2.8-1.4c-1.1,0-2.1,0.5-2.8,1.4
						c-1,1.4-1.6,3.2-1.4,4.9c-0.1,1.7,0.4,3.4,1.4,4.8c0.7,0.9,1.7,1.4,2.9,1.4c1.2,0,2.2-0.5,2.9-1.4
						C128.4,86.2,128.8,84.5,128.7,82.8"/>
					<polygon class="st1" points="15.4,95.4 15.1,95.4 15.1,92.6 13.4,92.6 13.4,95.4 13.1,95.4 13.1,92.4 15.4,92.4 					"/>
					<polygon class="st1" points="21,93.9 19.6,93.9 19.6,95.2 21.2,95.2 21.2,95.4 19.3,95.4 19.3,92.4 21.2,92.4 21.2,92.6 
						19.6,92.6 19.6,93.7 21,93.7 					"/>
					<path class="st1" d="M25.2,94.1v1.3h-0.3v-3.1H26c0.3,0,0.5,0.1,0.8,0.3c0.3,0.3,0.3,1,0,1.3c-0.2,0.2-0.5,0.3-0.8,0.3
						L25.2,94.1L25.2,94.1z M25.2,93.9H26c0.2,0,0.4-0.1,0.5-0.2s0.2-0.3,0.2-0.5c0-0.2-0.1-0.3-0.2-0.5s-0.3-0.2-0.5-0.2h-0.8V93.9
						z"/>
					<path class="st1" d="M32.9,94.5L32.9,94.5c0,0.3-0.1,0.5-0.3,0.8c-0.2,0.2-0.5,0.3-0.8,0.3s-0.6-0.1-0.8-0.4
						c-0.2-0.3-0.3-0.6-0.3-1v-0.5c0-0.3,0.1-0.7,0.3-1c0.2-0.3,0.5-0.4,0.8-0.4c0.3,0,0.5,0.1,0.8,0.3c0.2,0.2,0.3,0.5,0.3,0.8l0,0
						h-0.2c0-0.2-0.1-0.4-0.2-0.6c-0.2-0.1-0.4-0.2-0.6-0.2c-0.3,0-0.5,0.1-0.7,0.3c-0.2,0.2-0.3,0.5-0.3,0.8v0.5
						c0,0.3,0.1,0.5,0.3,0.8c0.1,0.2,0.4,0.3,0.7,0.3c0.2,0,0.5-0.1,0.6-0.2s0.3-0.3,0.2-0.6H32.9z"/>
					<path class="st1" d="M39,94.1c0,0.3-0.1,0.7-0.3,1c-0.2,0.3-0.5,0.4-0.9,0.3c-0.3,0-0.6-0.1-0.9-0.3c-0.2-0.3-0.3-0.6-0.3-1
						v-0.5c0-0.3,0.1-0.7,0.3-1c0.2-0.3,0.5-0.4,0.9-0.3c0.3,0,0.7,0.1,0.9,0.3c0.2,0.3,0.3,0.6,0.3,1V94.1z M38.8,93.7
						c0-0.3-0.1-0.5-0.3-0.8c-0.1-0.2-0.4-0.3-0.7-0.3c-0.3,0-0.5,0.1-0.7,0.3c-0.2,0.2-0.3,0.5-0.3,0.8v0.5c0,0.3,0.1,0.5,0.3,0.8
						c0.1,0.2,0.4,0.3,0.7,0.3c0.3,0,0.5-0.1,0.7-0.3c0.2-0.2,0.3-0.5,0.3-0.8V93.7z"/>
					<polygon class="st1" points="45.1,95.4 44.9,95.4 44.9,94 43.1,94 43.1,95.4 42.8,95.4 42.8,92.4 43.1,92.4 43.1,93.8 
						44.9,93.8 44.9,92.4 45.1,92.4 					"/>
					<path class="st1" d="M50.7,94.6h-1.3l-0.3,0.9h-0.3l1.2-3.1h0.2l1.2,3.1H51L50.7,94.6z M49.5,94.3h1.2l-0.6-1.6l0,0L49.5,94.3z
						"/>
					<path class="st1" d="M57.3,92.4v3.1H57v-2.9h-1.3l-0.1,1.2c0,0.5-0.1,0.9-0.2,1.3c-0.1,0.3-0.3,0.4-0.6,0.4h-0.1v-0.2h0.1
						c0.2,0,0.4-0.1,0.5-0.3c0.1-0.4,0.2-0.8,0.1-1.2l0.1-1.4L57.3,92.4z"/>
					<path class="st1" d="M61.5,93.7h0.8c0.3,0,0.5,0.1,0.8,0.3c0.2,0.1,0.3,0.4,0.3,0.6c0,0.3-0.1,0.5-0.3,0.7
						c-0.2,0.2-0.5,0.3-0.8,0.3h-1v-3.1h0.3V93.7z M61.5,93.9v1.4h0.8c0.2,0,0.4-0.1,0.5-0.2c0.1-0.1,0.2-0.3,0.2-0.5
						c0-0.2-0.1-0.3-0.2-0.5c-0.1-0.1-0.3-0.2-0.5-0.2H61.5z"/>
					<polygon class="st1" points="69.4,95.4 69.1,95.4 69.1,94 67.3,94 67.3,95.4 67,95.4 67,92.4 67.3,92.4 67.3,93.8 69.1,93.8 
						69.1,92.4 69.4,92.4 					"/>
					<path class="st1" d="M73.5,93.7h0.8c0.3,0,0.5,0.1,0.8,0.3c0.3,0.3,0.3,1,0,1.3l0,0c-0.2,0.2-0.5,0.3-0.8,0.3h-1v-3.1h0.3V93.7
						z M73.5,93.9v1.4h0.8c0.2,0,0.4-0.1,0.5-0.2c0.1-0.1,0.2-0.3,0.2-0.5c0-0.2-0.1-0.3-0.2-0.5c-0.1-0.1-0.3-0.2-0.5-0.2H73.5z
						 M76.1,95.4h-0.3v-3.1h0.3V95.4z"/>
					<path class="st1" d="M82.1,92.4h0.2v3.1H82v-2.7l0,0l-1.7,2.7h-0.3v-3.1h0.3V95l0,0L82.1,92.4z M81.8,91.5L81.8,91.5
						c0,0.1-0.1,0.3-0.1,0.4c-0.3,0.2-0.6,0.2-0.9,0c-0.1-0.1-0.1-0.3-0.1-0.4l0,0h0.2c0,0.1,0,0.2,0.1,0.3c0.1,0.1,0.2,0.1,0.3,0.1
						c0.1,0,0.2,0,0.3-0.1c0.1-0.1,0.1-0.1,0.1-0.3H81.8z"/>
					<path class="st1" d="M91.3,92.6h-1.6v1.1h0.8c0.3,0,0.5,0.1,0.8,0.3c0.3,0.3,0.3,1,0,1.3l0,0c-0.2,0.2-0.5,0.3-0.8,0.3h-1v-3.1
						h1.9V92.6z M89.7,93.9v1.4h0.8c0.2,0,0.4-0.1,0.5-0.2c0.1-0.1,0.2-0.3,0.2-0.5c0-0.2-0.1-0.3-0.2-0.5c-0.1-0.1-0.3-0.2-0.5-0.2
						H89.7z"/>
					<path class="st1" d="M95.6,94.1v1.3h-0.3v-3.1h1.1c0.3,0,0.5,0.1,0.8,0.3c0.3,0.3,0.3,1,0,1.3c-0.2,0.2-0.5,0.3-0.8,0.3
						L95.6,94.1L95.6,94.1z M95.6,93.9h0.8c0.2,0,0.4-0.1,0.5-0.2c0.1-0.1,0.2-0.3,0.2-0.5c0-0.2-0.1-0.3-0.2-0.5
						c-0.1-0.1-0.3-0.2-0.5-0.2h-0.8V93.9z"/>
					<polygon class="st1" points="102.9,93.9 101.5,93.9 101.5,95.2 103.1,95.2 103.1,95.4 101.3,95.4 101.3,92.4 103.1,92.4 
						103.1,92.6 101.5,92.6 101.5,93.7 102.9,93.7 					"/>
					<polygon class="st1" points="109.1,95.4 108.9,95.4 108.9,94 107.1,94 107.1,95.4 106.8,95.4 106.8,92.4 107.1,92.4 
						107.1,93.8 108.9,93.8 108.9,92.4 109.1,92.4 					"/>
					<path class="st1" d="M115.5,95.2h0.3v1h-0.3v-0.8h-2.4v0.8h-0.3v-1h0.1c0.2,0,0.3-0.1,0.5-0.5c0.1-0.4,0.2-0.9,0.3-1.3l0.1-1.1
						h1.6V95.2z M113.9,93.5c0,0.3-0.1,0.8-0.1,1.1c-0.1,0.3-0.1,0.5-0.3,0.7h1.7v-2.7H114L113.9,93.5z"/>
				</g>
			</g>
		</g>
	</g>
</g>
</svg>
