<?xml version="1.0" encoding="utf-8"?>
<!-- Generator: Adobe Illustrator 19.2.0, SVG Export Plug-In . SVG Version: 6.00 Build 0)  -->
<svg version="1.1" id="Layer_1" xmlns="http://www.w3.org/2000/svg" xmlns:xlink="http://www.w3.org/1999/xlink" x="0px" y="0px"
	 width="17.2px" height="14px" viewBox="0 0 17.2 14" style="enable-background:new 0 0 17.2 14;" xml:space="preserve">
<style type="text/css">
	.st0{fill:#FFFFFF;}
</style>
<g>
	<path class="st0" d="M10.2,14c-1.9,0-3.6-0.7-5-2c-0.2-0.2-0.2-0.5,0-0.7s0.5-0.2,0.7,0c1.1,1.1,2.6,1.8,4.2,1.8c3.3,0,6-2.7,6-6
		s-2.7-6-6-6C8.6,1,7,1.7,5.9,2.9C5.7,3.1,5.4,3.2,5.2,3C5,2.8,4.9,2.5,5.1,2.3C6.5,0.8,8.3,0,10.2,0c3.9,0,7,3.1,7,7
		C17.2,10.9,14.1,14,10.2,14z"/>
	<path class="st0" d="M9.8,10.6c-0.1,0-0.3,0-0.4-0.1c-0.2-0.2-0.2-0.5,0-0.7l2.8-2.8L9.6,4.3c-0.2-0.2-0.2-0.5,0-0.7s0.5-0.2,0.7,0
		l3.4,3.4l-3.6,3.6C10.1,10.6,9.9,10.6,9.8,10.6z"/>
	<path class="st0" d="M0.5,7.5C0.2,7.5,0,7.3,0,7c0-0.3,0.2-0.5,0.5-0.5L13,6.4c0,0,0,0,0,0c0.3,0,0.5,0.2,0.5,0.5
		c0,0.3-0.2,0.5-0.5,0.5L0.5,7.5C0.5,7.5,0.5,7.5,0.5,7.5z"/>
</g>
</svg>
