<svg id="Layer_1" data-name="Layer 1" xmlns="http://www.w3.org/2000/svg" viewBox="0 0 70 70"><defs><style>.cls-1{fill:#31d5db;}</style></defs><title>swot 2</title><path class="cls-1" d="M42.95,61.79,42,61.38a15.46,15.46,0,0,1,1.83-1.89,8.2,8.2,0,0,0,1.37-10.23c-1.48-2.46-2.87-5.41-3.13-6a51.93,51.93,0,0,1-.94-10c0-1.21,0-2.61.08-4.09.18-6.71.2-11.84-1.16-14.31a8.51,8.51,0,0,0,4.08,1.5c2.63,0,6.61-2.53,6.61-6.33a6.3,6.3,0,0,0-6.54-6.47c-1.88,0-4.4,1.41-6.83,2.78-1.66.93-3.55,2-4.33,2-2.85,0-11.81,4.32-11.81,11.81,0,1.19-.06,2.88-.12,4.83-.38,11.5-.48,22.06,2.39,24.94a2.69,2.69,0,0,0,2,.84,2.44,2.44,0,0,0,1.55-.67c.81,1,2.43,3.12,2.47,3.7a14.71,14.71,0,0,1-2.22,2.92c-.78.89-1.58,1.82-2.16,2.65-1.59,2.27-2.32,7.17-2.35,7.38a1,1,0,0,0,1,1.14H48.58a1,1,0,0,0,1-1C49.58,64.84,46.58,63.37,42.95,61.79Zm-4,4.11c-.66-1.67-2.8-3.06-4.31-4L34,61.48a13.48,13.48,0,0,1,1.91-2A8.2,8.2,0,0,0,37.3,49.26,21.9,21.9,0,0,1,35,43.39a1,1,0,0,0-2,.41,23.57,23.57,0,0,0,2.51,6.49,6.19,6.19,0,0,1-1,7.73c-2.34,2.15-2.7,2.87-2.64,3.82,0,.67.47,1,1.59,1.7a17.44,17.44,0,0,1,3.06,2.35H25a16.85,16.85,0,0,1,1.81-5.37c.52-.75,1.29-1.63,2-2.49,1.73-2,2.71-3.17,2.71-4.19s-1.16-2.74-2.92-5l-.41-.53c2.58-6.57,1.13-25.35.94-27.66a1,1,0,0,0-2,.16c.72,8.75,1,23.22-.94,27.14l0,0a2.79,2.79,0,0,1-.37.57c-.2.22-.32.23-.36.23a.66.66,0,0,1-.52-.25c-2.5-2.51-2-16.14-1.81-23.47.06-2,.12-3.68.12-4.9,0-6.39,8.21-9.81,9.81-9.81,1.3,0,3.16-1,5.31-2.25s4.49-2.52,5.85-2.52a4.31,4.31,0,0,1,4.54,4.47c0,2.65-3,4.33-4.61,4.33-1.32,0-3.34-1.36-4-1.89a1,1,0,0,0-1.48.27l-.84,1.4A1,1,0,0,0,38,15.42c1.56,1.42,1.36,8.82,1.23,13.71,0,1.5-.08,2.92-.08,4.14a52.34,52.34,0,0,0,1,10.54,1.07,1.07,0,0,0,.07.2c.06.14,1.59,3.45,3.28,6.27a6.19,6.19,0,0,1-1,7.73c-2.34,2.15-2.7,2.87-2.64,3.82,0,.78.49,1,2.29,1.78a29.71,29.71,0,0,1,4.48,2.27Z"/><path class="cls-1" d="M3.75,21.33a1,1,0,0,0-2,0A17.28,17.28,0,0,0,3.87,29.1,7.49,7.49,0,0,1,3,37.53a12.52,12.52,0,0,0-3,7.68c0,1.62,1.43,4.63,1.71,5.21a1,1,0,1,0,1.8-.88A15.45,15.45,0,0,1,2,45.21a10.69,10.69,0,0,1,2.49-6.36,9.47,9.47,0,0,0,1.08-10.8A15.47,15.47,0,0,1,3.75,21.33Z"/><path class="cls-1" d="M9.9,2.14a1,1,0,0,0-.53,1.93c.15,0,3.57,1,3.41,3.89a17.51,17.51,0,0,1-1.1,4.67,12.63,12.63,0,0,0-1,4.78,6.85,6.85,0,0,0,1.84,4.68,1,1,0,0,0,1.33-1.49,5.22,5.22,0,0,1-1.17-3.32,11.06,11.06,0,0,1,.87-4,19.34,19.34,0,0,0,1.2-5.19C15,4.49,11.67,2.63,9.9,2.14Z"/><path class="cls-1" d="M14.49,48a4.49,4.49,0,0,0-2.39-4.29,1,1,0,0,0-1.3.51,1,1,0,0,0,.49,1.32A2.54,2.54,0,0,1,12.49,48c0,.93-.91,2.7-1.78,4.41-1.22,2.38-2.61,5.08-2.57,7.33a6.84,6.84,0,0,0,4.13,6A1,1,0,0,0,13,63.87a4.83,4.83,0,0,1-2.89-4.15c0-1.74,1.23-4.21,2.35-6.38S14.49,49.44,14.49,48Z"/><path class="cls-1" d="M65.34,5.05A1,1,0,0,0,64,6.49c1.13,1.09,4,4.52,4,7.21,0,3.37-3.3,8.3-3.34,8.35a1,1,0,0,0,1.66,1.12C66.47,23,70,17.68,70,13.7S65.53,5.24,65.34,5.05Z"/><path class="cls-1" d="M52.25,34.75c0-2.24,1.22-4.48,3.05-7.15a11.14,11.14,0,0,0,1.5-7,1,1,0,1,0-2,.27,9.15,9.15,0,0,1-1.17,5.62c-2,3-3.4,5.54-3.4,8.28,0,2.91,2.5,7.33,4.15,9,1.16,1.16,1.32,4.9.92,7a1,1,0,0,0,.79,1.17l.19,0a1,1,0,0,0,1-.81c.37-1.91.51-6.77-1.47-8.76C54.4,40.92,52.25,37,52.25,34.75Z"/><path class="cls-1" d="M69.54,65.7a7.48,7.48,0,0,1-3.12-5.9,21.12,21.12,0,0,1,1.73-7,14.63,14.63,0,0,0,1.22-4.5c0-2.86-2.67-5.34-2.78-5.44a1,1,0,1,0-1.35,1.48c.59.54,2.13,2.31,2.13,4a14.11,14.11,0,0,1-1.09,3.8,23,23,0,0,0-1.86,7.71,9.45,9.45,0,0,0,4,7.58,1,1,0,1,0,1.09-1.68Z"/></svg>