<svg id="Layer_1" data-name="Layer 1" xmlns="http://www.w3.org/2000/svg" viewBox="0 0 70 70"><defs><style>.cls-1{fill:#31d5db;}</style></defs><title>swot 3</title><path class="cls-1" d="M7.39,12.28a1,1,0,0,0-1.13.85L0,58.2a1,1,0,0,0,.85,1.13H1a1,1,0,0,0,1-.86L8.24,13.41A1,1,0,0,0,7.39,12.28Z"/><path class="cls-1" d="M15.39,12.28a1,1,0,0,0-1.13.85L8,58.2a1,1,0,0,0,.85,1.13H9a1,1,0,0,0,1-.86l6.25-45.06A1,1,0,0,0,15.39,12.28Z"/><path class="cls-1" d="M61.14,12.28a1,1,0,0,0-1.13.85L53.76,58.2a1,1,0,0,0,.85,1.13h.14a1,1,0,0,0,1-.86L62,13.41A1,1,0,0,0,61.14,12.28Z"/><path class="cls-1" d="M69.14,12.28a1,1,0,0,0-1.13.85L61.76,58.2a1,1,0,0,0,.85,1.13h.14a1,1,0,0,0,1-.86L70,13.41A1,1,0,0,0,69.14,12.28Z"/><path class="cls-1" d="M52.32,6.76H44.76a1,1,0,0,0-1,.86l-1.38,10H31.76L33.11,7.9a1,1,0,0,0-1-1.14H24.56a1,1,0,0,0-1,.86L16,62.1a1,1,0,0,0,1,1.14h7.56a1,1,0,0,0,1-.86l1-7.09H37.15l-.95,6.81a1,1,0,0,0,1,1.14h7.56a1,1,0,0,0,1-.86L53.31,7.9a1,1,0,0,0-1-1.14ZM39.08,41.39H28.46l1.37-9.9H40.46Zm3-21.8-1.37,9.9H30.11l1.37-9.9ZM23.69,61.24H18.15L25.43,8.76H31l-1.22,8.83H27.81a1,1,0,0,0,0,2h1.65l-1.37,9.9H26.19a1,1,0,0,0,0,2h1.63l-1.37,9.9h-2a1,1,0,0,0,0,2h1.77l-1.37,9.9H22.86a1,1,0,1,0,0,2h1.65Zm3.12-8,1.37-9.9H38.8l-1.37,9.9Zm17.08,8H38.35l4.24-30.56a1,1,0,0,0,0-.19s0,0,0,0l3-21.69h5.54Z"/></svg>